<?xml version="1.0" encoding="UTF-8"?>
<svg version="1.1" xmlns="http://www.w3.org/2000/svg" width="32" height="32">
<path d="M0 0 C1.875 0.25 1.875 0.25 4 1 C6.56492662 4.58374765 6.26386693 8.46320325 6.1875 12.6875 C6.18685547 13.37650391 6.18621094 14.06550781 6.18554688 14.77539062 C6.14055525 19.85944475 6.14055525 19.85944475 5 21 C3.23140807 21.09946453 1.45888549 21.13080217 -0.3125 21.1328125 C-1.38757813 21.13410156 -2.46265625 21.13539062 -3.5703125 21.13671875 C-4.70210937 21.13285156 -5.83390625 21.12898438 -7 21.125 C-8.13179687 21.12886719 -9.26359375 21.13273437 -10.4296875 21.13671875 C-11.50476563 21.13542969 -12.57984375 21.13414063 -13.6875 21.1328125 C-14.68136719 21.13168457 -15.67523438 21.13055664 -16.69921875 21.12939453 C-19 21 -19 21 -20 20 C-20.07319621 17.30345146 -20.09242537 14.63308542 -20.0625 11.9375 C-20.05798828 11.17888672 -20.05347656 10.42027344 -20.04882812 9.63867188 C-20.0370068 7.75908129 -20.01907078 5.87953101 -20 4 C-19.34 4 -18.68 4 -18 4 C-18 3.34 -18 2.68 -18 2 C-10.4738676 1.87456446 -10.4738676 1.87456446 -7.875 2.5625 C-5.1167247 3.20609757 -2.73998157 2.56045077 0 2 C0 1.34 0 0.68 0 0 Z M-15 5 C-15 8.3 -15 11.6 -15 15 C-12.69 15.66 -10.38 16.32 -8 17 C-8 16.34 -8 15.68 -8 15 C-8.66 14.67 -9.32 14.34 -10 14 C-10 12.35 -10 10.7 -10 9 C-9.34 8.67 -8.68 8.34 -8 8 C-8 7.34 -8 6.68 -8 6 C-10.31 5.67 -12.62 5.34 -15 5 Z M-4 5 C-4.99 5.99 -5.98 6.98 -7 8 C-6.01 9.32 -5.02 10.64 -4 12 C-4.99 12.495 -4.99 12.495 -6 13 C-5.67 14.32 -5.34 15.64 -5 17 C-3.02 16.34 -1.04 15.68 1 15 C1 13.02 1 11.04 1 9 C-0.32 9 -1.64 9 -3 9 C-3.33 7.68 -3.66 6.36 -4 5 Z " fill="#4CB8D3" transform="translate(23,5)"/>
<path d="M0 0 C1.875 0.25 1.875 0.25 4 1 C6.56492662 4.58374765 6.26386693 8.46320325 6.1875 12.6875 C6.18685547 13.37650391 6.18621094 14.06550781 6.18554688 14.77539062 C6.14055525 19.85944475 6.14055525 19.85944475 5 21 C2.81360547 21.07258946 0.62499611 21.08373783 -1.5625 21.0625 C-3.35880859 21.04896484 -3.35880859 21.04896484 -5.19140625 21.03515625 C-6.11824219 21.02355469 -7.04507812 21.01195313 -8 21 C-6.69921875 18.55078125 -6.69921875 18.55078125 -5 16 C-1.8125 15.1875 -1.8125 15.1875 1 15 C0.67 13.35 0.34 11.7 0 10 C-0.99 9.67 -1.98 9.34 -3 9 C-3.33 7.02 -3.66 5.04 -4 3 C-2.68 2.67 -1.36 2.34 0 2 C0 1.34 0 0.68 0 0 Z " fill="#7682EB" transform="translate(23,5)"/>
<path d="M0 0 C0 0.99 0 1.98 0 3 C-0.66 3 -1.32 3 -2 3 C-1.67 3.598125 -1.34 4.19625 -1 4.8125 C0 7 0 7 0 10 C-0.66 10 -1.32 10 -2 10 C-1.67 11.65 -1.34 13.3 -1 15 C-1.99 15.66 -2.98 16.32 -4 17 C-4 15.35 -4 13.7 -4 12 C-4.99 11.67 -5.98 11.34 -7 11 C-6.51098901 4.64285714 -6.51098901 4.64285714 -4.0625 1.5625 C-2 0 -2 0 0 0 Z " fill="#619ADF" transform="translate(19,8)"/>
<path d="M0 0 C0.66 0.33 1.32 0.66 2 1 C2 3.31 2 5.62 2 8 C1.01 7.67 0.02 7.34 -1 7 C-0.67 4.69 -0.34 2.38 0 0 Z " fill="#56A8D7" transform="translate(13,12)"/>
</svg>
