<?xml version="1.0" encoding="UTF-8"?>
<svg version="1.1" xmlns="http://www.w3.org/2000/svg" width="192" height="192">
<path d="M0 0 C3.3779613 -0.35302464 5.70544143 -1.97274894 8.5 -3.8125 C17.85962232 -9.57226758 27.93014923 -12.17418215 38.875 -12.0625 C40.02742188 -12.05347656 41.17984375 -12.04445312 42.3671875 -12.03515625 C43.23601562 -12.02355469 44.10484375 -12.01195312 45 -12 C45 -9.36 45 -6.72 45 -4 C43.85144531 -3.91363281 42.70289063 -3.82726563 41.51953125 -3.73828125 C31.62751114 -2.88669991 23.05304624 -1.34901241 14 3 C13.16210938 3.36996094 12.32421875 3.73992188 11.4609375 4.12109375 C9.25284671 5.24854647 7.66687205 6.16409304 6 8 C5.28192323 10.41458563 5.06474579 12.49660811 5.03515625 15.01171875 C5 17 5 17 4 19 C2.02 19 0.04 19 -2 19 C-3 17 -3 17 -2.96484375 15.046875 C-2.93366656 12.42799134 -3.13397135 10.48094198 -4 8 C-17.16867923 -4.35746695 -37.84173567 -3 -54 -3 C-54 20.76 -54 44.52 -54 69 C-52.02 68.505 -52.02 68.505 -50 68 C-33.58571356 66.82167894 -18.32569785 71.26665868 -4 79 C-3.96261719 77.87980469 -3.92523438 76.75960937 -3.88671875 75.60546875 C-3.82105743 74.1327791 -3.75461014 72.66012434 -3.6875 71.1875 C-3.66494141 70.44951172 -3.64238281 69.71152344 -3.61914062 68.95117188 C-3.3453392 63.45025238 -3.3453392 63.45025238 -1.45703125 60.98828125 C-0.97621094 60.66214844 -0.49539062 60.33601563 0 60 C1.65 60.66 3.3 61.32 5 62 C5.495 70.415 5.495 70.415 6 79 C8.2275 77.906875 10.455 76.81375 12.75 75.6875 C25.62367331 69.56460399 41.82144912 65.21679896 56 69 C55.99476318 67.70263916 55.98952637 66.40527832 55.98413086 65.06860352 C55.96608531 60.27352585 55.95456963 55.4784512 55.94506836 50.68334961 C55.94002712 48.60456844 55.93319426 46.52579084 55.92456055 44.44702148 C55.91248578 41.46597414 55.90676976 38.48497351 55.90234375 35.50390625 C55.89460182 34.10078941 55.89460182 34.10078941 55.88670349 32.66932678 C55.88662796 31.80850998 55.88655243 30.94769318 55.88647461 30.06079102 C55.884254 29.29912125 55.88203339 28.53745148 55.87974548 27.75270081 C56 26 56 26 57 25 C59.4375 24.8125 59.4375 24.8125 62 25 C64.47565035 27.47565035 64.25234962 28.19305733 64.25878906 31.6015625 C64.26509338 32.55595215 64.27139771 33.5103418 64.27789307 34.49365234 C64.27182037 36.04366943 64.27182037 36.04366943 64.265625 37.625 C64.26753845 38.68283691 64.2694519 39.74067383 64.27142334 40.83056641 C64.27278602 43.06998939 64.26908382 45.30942026 64.26074219 47.54882812 C64.25004402 50.98585677 64.26063488 54.4223627 64.2734375 57.859375 C64.27211592 60.03125116 64.26955356 62.20312699 64.265625 64.375 C64.26967346 65.40834473 64.27372192 66.44168945 64.27789307 67.50634766 C64.26843658 68.93793213 64.26843658 68.93793213 64.25878906 70.3984375 C64.25719788 71.24067871 64.25560669 72.08291992 64.25396729 72.95068359 C64 75 64 75 62 77 C60.08325195 77.17944336 60.08325195 77.17944336 57.73828125 77.08984375 C56.87356201 77.06768799 56.00884277 77.04553223 55.11791992 77.02270508 C54.19213135 76.9945874 53.26634277 76.96646973 52.3125 76.9375 C39.91281633 76.74605218 29.70994489 78.60877067 18 83 C41.265 83.495 41.265 83.495 65 84 C64.91298828 76.30816406 64.91298828 76.30816406 64.82421875 68.4609375 C64.79866267 65.2069995 64.77459273 61.95318571 64.75585938 58.69921875 C64.7260009 53.53733537 64.69072741 48.37589659 64.62280273 43.21435547 C64.56836693 39.0516435 64.53855533 34.88940846 64.52561378 30.72636795 C64.51639451 29.14033121 64.49839085 27.55431979 64.47134972 25.96848679 C64.43490253 23.74193235 64.43006073 21.5173334 64.43237305 19.29052734 C64.42126999 18.02477875 64.41016693 16.75903015 64.39872742 15.45492554 C65.19957665 10.85322817 66.65107966 9.21294265 70 6 C70.99 6 71.98 6 73 6 C73.0694059 16.91765747 73.12276327 27.83526276 73.15543652 38.75309563 C73.17111533 43.82229256 73.19239389 48.89133895 73.22631836 53.96044922 C73.25883298 58.84930025 73.2768363 63.73800616 73.28463173 68.62695694 C73.29018948 70.49535534 73.30104192 72.36374549 73.31719017 74.23208237 C73.33885972 76.84223559 73.34197136 79.45178352 73.34057617 82.06201172 C73.351362 82.8402832 73.36214783 83.61855469 73.3732605 84.42041016 C73.36076355 86.57052612 73.36076355 86.57052612 73 90 C69.58546115 92.27635923 68.35078087 92.25447973 64.33862305 92.27124023 C63.17699142 92.28142685 62.0153598 92.29161346 60.81852722 92.30210876 C59.56228043 92.30424881 58.30603363 92.30638885 57.01171875 92.30859375 C55.03897944 92.32731301 53.06624011 92.34604919 51.09351063 92.36577702 C46.22755882 92.41113959 41.36146765 92.43471838 36.49536133 92.45629883 C33.76605284 92.46913127 31.03700265 92.4898523 28.30781555 92.51856995 C25.73807979 92.54480001 23.168182 92.55870663 20.59831238 92.5589447 C12.39406502 92.63619042 12.39406502 92.63619042 5 96 C2.875 96.3984375 2.875 96.3984375 1 96.375 C0.38125 96.38273437 -0.2375 96.39046875 -0.875 96.3984375 C-3 96 -3 96 -5.29614258 94.50268555 C-10.916464 92.22247473 -16.3770215 92.55915048 -22.38671875 92.55859375 C-24.36343759 92.53841679 -26.3401564 92.51822964 -28.31686878 92.49742985 C-31.07364513 92.47182782 -33.83041688 92.45924776 -36.58728027 92.44702148 C-41.42473481 92.42509057 -46.26205503 92.39409234 -51.09931946 92.34571838 C-53.67231394 92.32130332 -56.24542064 92.30649211 -58.81852722 92.30210876 C-60.56097466 92.28682884 -60.56097466 92.28682884 -62.33862305 92.27124023 C-63.36199265 92.26696518 -64.38536224 92.26269012 -65.43974304 92.25828552 C-68 92 -68 92 -71 90 C-71.29684659 87.19994688 -71.39898385 84.62070204 -71.37231445 81.81835938 C-71.37596512 80.97271927 -71.37961578 80.12707916 -71.38337708 79.2558136 C-71.39150429 76.45159013 -71.3778546 73.64794059 -71.36328125 70.84375 C-71.3627629 68.90083822 -71.36327962 66.95792591 -71.36479187 65.01501465 C-71.36470205 60.93945505 -71.35425257 56.86409287 -71.33618164 52.78857422 C-71.31349415 47.5559027 -71.31294932 42.32351984 -71.31969929 37.09081268 C-71.32303559 33.07775289 -71.31641557 29.06475929 -71.30657005 25.05171204 C-71.30271192 23.1219365 -71.30157237 21.19215362 -71.3031559 19.26237488 C-71.30352542 16.56865323 -71.29093834 13.87530618 -71.2746582 11.18164062 C-71.27713562 10.37845901 -71.27961304 9.5752774 -71.28216553 8.74775696 C-71.22874063 3.22874063 -71.22874063 3.22874063 -69 1 C-65.375 0.875 -65.375 0.875 -62 1 C-62.061875 -0.0725 -62.12375 -1.145 -62.1875 -2.25 C-62 -6 -62 -6 -61.0625 -8.3125 C-45.4793291 -21.0623671 -14.25014824 -9.50009882 0 0 Z M-64 9 C-64 33.75 -64 58.5 -64 84 C-47.17 84 -30.34 84 -13 84 C-20.94910298 76.05089702 -36.20086466 75.91876656 -46.68823242 75.86816406 C-51.12612004 75.87807243 -55.56278503 75.92300615 -60 76 C-61.3890952 73.2218096 -61.16331551 70.91465255 -61.20532227 67.80615234 C-61.22526749 66.50495453 -61.24521271 65.20375671 -61.26576233 63.86312866 C-61.28274673 62.4373995 -61.29962553 61.01166907 -61.31640625 59.5859375 C-61.33697521 58.13147387 -61.35797166 56.67701623 -61.37937927 55.2225647 C-61.43460604 51.39213912 -61.4840126 47.56165955 -61.53222656 43.73114014 C-61.5824372 39.8233153 -61.63812554 35.915569 -61.69335938 32.0078125 C-61.80094833 24.33860815 -61.90239162 16.66933855 -62 9 C-62.66 9 -63.32 9 -64 9 Z " fill="#5E9FDC" transform="translate(95,58)"/>
<path d="M0 0 C6.07931395 0.69916374 11.4885235 6.63995308 15.3515625 11.1484375 C18.5318141 15.79559481 19.16192765 19.76293429 18.78515625 25.3203125 C17.49219501 28.74665978 16.72257374 30.73107865 13.59765625 32.6953125 C12.99953125 32.9015625 12.40140625 33.1078125 11.78515625 33.3203125 C11.12515625 32.6603125 10.46515625 32.0003125 9.78515625 31.3203125 C10.09765625 29.6328125 10.09765625 29.6328125 10.78515625 27.3203125 C11.69771934 23.84926198 11.69771934 23.84926198 11.78515625 20.3203125 C9.55285288 17.26123011 7.13294622 15.93429967 3.78515625 14.3203125 C3.8008667 14.9501001 3.81657715 15.5798877 3.83276367 16.22875977 C3.89555857 19.11335075 3.93428683 21.99779736 3.97265625 24.8828125 C3.99779297 25.87345703 4.02292969 26.86410156 4.04882812 27.88476562 C4.11989298 35.01493956 3.51755589 40.07558793 -1.21484375 45.6953125 C-5.04774898 48.809548 -9.03611979 48.64780319 -13.765625 48.61328125 C-17.2007822 48.20237728 -18.91653389 46.84103944 -21.21484375 44.3203125 C-22.83219027 41.08561945 -22.79327725 37.81691052 -22.21484375 34.3203125 C-20.46885469 31.00220881 -18.09388398 28.82923053 -14.83984375 26.9453125 C-10.91679283 26.01125276 -6.90312085 25.47617395 -3.21484375 27.3203125 C-3.22269897 26.14674194 -3.22269897 26.14674194 -3.23071289 24.94946289 C-3.25141481 21.42725417 -3.26448213 17.9050582 -3.27734375 14.3828125 C-3.28572266 13.15111328 -3.29410156 11.91941406 -3.30273438 10.65039062 C-3.30756836 8.8956543 -3.30756836 8.8956543 -3.3125 7.10546875 C-3.32035522 5.47943726 -3.32035522 5.47943726 -3.32836914 3.82055664 C-3.18304703 0.6200325 -3.13410595 0.45325695 0 0 Z " fill="#7980EC" transform="translate(145.21484375,34.6796875)"/>
<path d="M0 0 C4.92757957 2.01334925 9.45830979 4.85363459 14.04345703 7.53808594 C15.95422024 8.65029939 17.87836566 9.73652012 19.80371094 10.82324219 C21.01686367 11.53001045 22.22913567 12.23829309 23.44042969 12.94824219 C24.54612305 13.58600586 25.65181641 14.22376953 26.79101562 14.88085938 C29.20605469 16.90136719 29.20605469 16.90136719 29.77661133 19.46655273 C29.07642472 22.45455488 28.35619424 23.10862248 25.84277344 24.81152344 C25.11106934 25.31441895 24.37936523 25.81731445 23.62548828 26.33544922 C22.8270752 26.85220215 22.02866211 27.36895508 21.20605469 27.90136719 C20.39604004 28.43487793 19.58602539 28.96838867 18.75146484 29.51806641 C16.19706942 31.16585638 13.61442122 32.75734373 11.01855469 34.33886719 C10.14263672 34.89251953 9.26671875 35.44617188 8.36425781 36.01660156 C7.51412109 36.53416016 6.66398437 37.05171875 5.78808594 37.58496094 C5.02729736 38.05474365 4.26650879 38.52452637 3.48266602 39.00854492 C0.64281827 40.12225251 -0.91726856 39.79525677 -3.79394531 38.90136719 C-5.78494161 36.91037089 -4.98164122 32.97945445 -4.99707031 30.25292969 C-5.00562042 29.10043228 -5.00562042 29.10043228 -5.01434326 27.9246521 C-5.02380711 26.29548526 -5.03033272 24.66629916 -5.03417969 23.03710938 C-5.04387826 20.54360515 -5.07488442 18.05092748 -5.10644531 15.55761719 C-5.11297582 13.97689293 -5.11822611 12.39616276 -5.12207031 10.81542969 C-5.13441711 10.06846832 -5.14676392 9.32150696 -5.15948486 8.5519104 C-5.14668871 5.57886542 -5.108375 3.41047259 -3.5234375 0.84423828 C-1.79394531 -0.09863281 -1.79394531 -0.09863281 0 0 Z " fill="#5CA1DD" transform="translate(83.7939453125,78.0986328125)"/>
</svg>
