<?xml version="1.0" encoding="UTF-8"?>
<svg version="1.1" xmlns="http://www.w3.org/2000/svg" width="1024" height="1024">
<path d="M0 0 C60.80548319 -0.63141727 121.51536858 3.65933834 177 31 C178.35534492 31.65129942 179.71081529 32.30233783 181.06640625 32.953125 C203.17992684 43.69201006 225.5420502 56.3555271 243.984375 72.734375 C245.88088749 74.1844469 245.88088749 74.1844469 247.96484375 73.94921875 C250.65531167 72.69435559 252.57594458 71.01733877 254.8125 69.0625 C261.51401853 63.4513079 268.63839878 58.69780591 276 54 C276.66854004 53.56961426 277.33708008 53.13922852 278.02587891 52.69580078 C297.24527241 40.38644332 317.48924113 29.6898365 339 22 C340.01787598 21.63422852 341.03575195 21.26845703 342.08447266 20.89160156 C384.51032383 5.81668259 432.72172588 -3.60457226 478 0 C479 1 479 1 479.11352539 4.23461914 C479.11336631 5.66814126 479.10767407 7.10166912 479.09765625 8.53515625 C479.0962413 9.28840683 479.09482635 10.04165741 479.09336853 10.81773376 C479.08775376 13.2326956 479.07519883 15.64756601 479.0625 18.0625 C479.0574869 19.69596221 479.05292366 21.32942586 479.04882812 22.96289062 C479.03777954 26.97529585 479.02050506 30.98763241 479 35 C477.72511719 34.97679687 476.45023438 34.95359375 475.13671875 34.9296875 C453.07288862 34.65461897 431.47318103 36.46543462 409.71484375 40.09765625 C404.49261982 40.9605199 399.27283533 41.55070579 394 42 C394 42.99 394 43.98 394 45 C393.29762207 44.80599609 392.59524414 44.61199219 391.87158203 44.41210938 C388.47976076 43.9253389 386.34005155 44.45887629 383.0546875 45.40625 C381.90484375 45.73423584 380.755 46.06222168 379.5703125 46.40014648 C378.35085938 46.76309814 377.13140625 47.1260498 375.875 47.5 C373.9878125 48.05312866 373.9878125 48.05312866 372.0625 48.61743164 C338.6421388 58.55939109 305.18973311 73.37279371 277.62402344 95.07104492 C275 97 275 97 272.36108398 98.33837891 C269.04388549 100.25790054 267.20473584 101.83150514 265 105 C263.24451801 112.14711242 263.91727473 119.83010869 264.125 127.125 C264.17897752 130.14822333 264.21844572 133.17040477 264.23605347 136.19406128 C264.25023504 138.06867466 264.28684365 139.94329377 264.34915161 141.81692505 C264.43382221 147.57907501 263.7311354 150.5554243 260 155 C256.37268724 158.73373758 253.07455695 160.79661206 247.8125 161.3125 C241.86198695 160.82475303 237.67460097 158.76047794 233.5625 154.4375 C231.42313261 151.10008687 230.87765723 148.65467465 230.98510742 144.77905273 C231.0038945 143.93064316 231.02268158 143.08223358 231.04203796 142.20811462 C231.06297012 141.29252274 231.08390228 140.37693085 231.10546875 139.43359375 C231.12950789 136.46379066 231.1429872 133.49403798 231.15649414 130.52416992 C231.17704179 128.47862745 231.21717361 126.4331811 231.27758789 124.38842773 C232.12181898 112.19920142 232.12181898 112.19920142 227.44189453 101.50390625 C224.57137735 98.86985877 221.38277574 96.92654914 218 95 C216.15931929 93.71882538 214.32480745 92.42868388 212.5 91.125 C210.34293557 89.73090244 208.1805228 88.35624235 206 87 C205.29375488 86.55930176 204.58750977 86.11860352 203.85986328 85.66455078 C155.80098553 55.85613532 101.36271361 36.22950186 44.25390625 35.76171875 C43.25633301 35.75210617 42.25875977 35.74249359 41.23095703 35.73258972 C38.00810273 35.70795908 34.78543744 35.69532955 31.5625 35.6875 C29.90950394 35.68257538 29.90950394 35.68257538 28.22311401 35.67755127 C5.43867946 35.65567947 -17.18961197 37.04637241 -39.55493164 41.63720703 C-42 42 -42 42 -48 42 C-48 171.03 -48 300.06 -48 433 C-47.34 432.67 -46.68 432.34 -46 432 C28.51666431 420.32409161 118.91145213 433.01742902 184.65893555 470.85229492 C187.01440743 472.22009785 187.01440743 472.22009785 190 472 C190.63421875 472.63615234 190.63421875 472.63615234 191.28125 473.28515625 C193.66681754 475.66530205 196.52146441 476.94121838 199.5 478.4375 C206.87290957 482.2290713 213.8169279 486.58329933 220.74023438 491.13842773 C221.51173828 491.63930908 222.28324219 492.14019043 223.078125 492.65625 C223.76293945 493.10806641 224.44775391 493.55988281 225.15332031 494.02539062 C227.09418128 495.23337423 227.09418128 495.23337423 230 495 C230.00364563 493.79810028 230.00729126 492.59620056 230.01104736 491.35787964 C230.04799711 480.028155 230.10576982 468.69870217 230.18390274 457.36918449 C230.22340282 451.54461417 230.25557903 445.72019562 230.27099609 439.89550781 C230.28614578 434.27377698 230.3205619 428.6524633 230.36830902 423.03091812 C230.38314014 420.88677726 230.391042 418.74257685 230.39188385 416.59838486 C230.39424998 413.59362116 230.42130207 410.59001359 230.45410156 407.58544922 C230.4490712 406.69999924 230.44404083 405.81454926 230.43885803 404.90226746 C230.5308365 399.45196881 231.37534981 396.32379577 235 392 C239.63616421 388.01074242 243.98346729 386.74549354 250 387 C254.38805276 387.87451492 257.24055386 389.22056843 260.375 392.4375 C262.71418943 396.12622179 264.24444799 398.77823818 264.2784729 403.20147705 C264.29521812 404.44660568 264.29521812 404.44660568 264.31230164 405.71688843 C264.31446182 406.6188797 264.31662201 407.52087097 264.31884766 408.45019531 C264.32889328 409.40662933 264.3389389 410.36306335 264.34928894 411.34848022 C264.38016818 414.50835573 264.39716939 417.66814632 264.4140625 420.828125 C264.43277032 423.01959974 264.45234344 425.21106725 264.4727478 427.40252686 C264.52411572 433.16955302 264.5637166 438.93660255 264.60089111 444.70373535 C264.64090148 450.58900759 264.69200737 456.47418224 264.7421875 462.359375 C264.83900201 473.90618149 264.92338919 485.45304303 265 497 C265.74276184 496.45458557 266.48552368 495.90917114 267.25079346 495.347229 C268.23183044 494.62968445 269.21286743 493.91213989 270.22363281 493.17285156 C271.19326965 492.46243713 272.16290649 491.75202271 273.16192627 491.02008057 C276.90166702 488.35821258 280.75910443 486.0112122 284.75 483.75 C285.55453613 483.29165771 286.35907227 482.83331543 287.18798828 482.36108398 C289.78472542 480.89393494 292.39045882 479.44424109 295 478 C295.87172852 477.5148291 296.74345703 477.0296582 297.64160156 476.52978516 C339.0924223 453.64343153 383.99410592 440.75390489 430.57104492 433.46142578 C432.9975672 433.11472813 432.9975672 433.11472813 435 432 C451.19693567 429.83802289 467.6995159 429.67656676 484.01245117 429.73925781 C487.30210931 429.74996618 490.59121759 429.73927798 493.88085938 429.7265625 C505.74531956 429.72182031 517.51074874 430.14846582 529.34448242 431.01660156 C530.68001841 431.11206175 532.01557696 431.20720675 533.35115814 431.30203247 C536.56767301 431.5316115 539.7839281 431.76431077 543 432 C542.99723462 430.32717374 542.99723462 430.32717374 542.99441338 428.62055302 C542.95000473 401.47880939 542.91714392 374.33707048 542.89637566 347.19529819 C542.88606521 334.06972016 542.87200926 320.94416614 542.84912109 307.81860352 C542.82918018 296.37772907 542.81628188 284.93687202 542.81182301 273.49598068 C542.80921684 267.43872579 542.8030959 261.38152064 542.78853989 255.32428169 C542.77494496 249.6206639 542.77078126 243.91711626 542.77378464 238.21348381 C542.77323533 236.12254836 542.76926932 234.03161051 542.76158905 231.94068909 C542.75159796 229.07984517 542.75404633 226.21926404 542.75949097 223.3584137 C542.75075244 222.12539696 542.75075244 222.12539696 542.74183738 220.8674708 C542.77542104 214.31198881 543.28827691 207.8121165 546.75 202.125 C550.87975908 198.22467198 555.34369246 196.33937845 561 196 C566.31063321 196.67037579 570.14738058 198.14738058 574 202 C577.03741109 206.33915871 578.12245243 209.99919734 578.13142776 215.24645519 C578.13526891 216.09185083 578.13911005 216.93724646 578.1430676 217.80826014 C578.14220112 218.73207919 578.14133463 219.65589823 578.14044189 220.60771179 C578.14489858 222.08564271 578.14489858 222.08564271 578.1494453 223.59343082 C578.15813648 226.90433677 578.15964091 230.21520658 578.16113281 233.52612305 C578.16576071 235.89631732 578.17078533 238.26651084 578.17617798 240.63670349 C578.18930726 247.08314501 578.19578482 253.52957961 578.20018864 259.97603202 C578.20295287 264.00305866 578.20719059 268.0300829 578.21169281 272.05710793 C578.22388496 283.21169096 578.23418398 294.36627207 578.2375679 305.52086163 C578.23778747 306.23461901 578.23800703 306.94837639 578.23823325 307.68376278 C578.23845153 308.39920866 578.23866981 309.11465454 578.2388947 309.85178059 C578.23933816 311.30149631 578.23978473 312.75121202 578.24023438 314.20092773 C578.2404558 314.92003371 578.24067723 315.63913968 578.24090537 316.38003675 C578.24485154 328.02641198 578.26230023 339.67272457 578.2855939 351.31907561 C578.30932848 363.28268948 578.32177073 375.24627195 578.32293582 387.20990974 C578.32385146 393.92440027 578.32957574 400.6388092 578.34775543 407.35327721 C578.36423243 413.67091681 578.36639329 419.98840164 578.35761642 426.30605507 C578.35684584 428.62275227 578.36119155 430.93945778 578.37107468 433.25613403 C578.38379222 436.42339663 578.37791801 439.59011095 578.36749268 442.75737 C578.37554908 443.67003543 578.38360548 444.58270087 578.39190602 445.52302283 C578.34431781 451.7221613 577.855745 458.7070946 573.61886716 463.59255809 C567.1961088 469.14281457 562.18268252 469.42963025 554 469 C550.066543 468.62983124 546.16190305 468.11293138 542.25 467.5625 C525.96014787 465.29881709 509.90448449 464.83774426 493.48266602 464.86962891 C490.17654903 464.87501785 486.87056616 464.86963869 483.56445312 464.86328125 C481.43229137 464.86394166 479.3001297 464.86522206 477.16796875 464.8671875 C476.19482224 464.86516327 475.22167572 464.86313904 474.21903992 464.86105347 C465.05295488 464.80225378 465.05295488 464.80225378 456 466 C455.67 466.66 455.34 467.32 455 468 C454.34 467.67 453.68 467.34 453 467 C404.30569492 467.92094342 354.21537468 487.4851335 312 510 C405.06 510.33 498.12 510.66 594 511 C593.9071875 483.45660156 593.814375 455.91320312 593.71875 427.53515625 C593.67789044 410.12174079 593.6390007 392.7083547 593.609375 375.29492188 C593.59371189 366.14965704 593.577548 357.00439331 593.56054688 347.85913086 C593.55843688 346.7129125 593.55632689 345.56669414 593.55415297 344.38574189 C593.51935323 325.8780237 593.45627995 307.37050423 593.38277763 288.8629039 C593.30797971 269.87075442 593.26353278 250.87870902 593.24729204 231.88641828 C593.23631203 220.16593221 593.20162671 208.4460076 593.13666826 196.72569435 C593.09439805 188.68989456 593.08159518 180.65438527 593.09198898 172.61848236 C593.09711599 167.98114702 593.08922824 163.34479312 593.0463562 158.70763206 C593.00737171 154.45991941 593.00548935 150.21384624 593.03280884 145.96605747 C593.03618415 144.43155411 593.02607571 142.8969477 593.00093454 141.36264659 C592.8894867 134.1398208 592.86657578 128.42073172 597.89704132 122.75675106 C599.25804237 121.49727437 600.62512256 120.24431403 602 119 C603.73283707 116.68839267 605.24821969 114.27890699 606.75 111.8125 C607.47349534 110.65205496 608.19744985 109.49189607 608.921875 108.33203125 C609.60765625 107.23246094 610.2934375 106.13289063 611 105 C611.72703125 103.93136719 612.4540625 102.86273438 613.203125 101.76171875 C615.11377937 99.079187 615.11377937 99.079187 616 96 C624.21398401 96.18942102 624.21398401 96.18942102 627 99.0625 C629.03710135 105.04648521 629.12542063 111.28124007 629.13422108 117.55256653 C629.13657331 118.27189421 629.13892554 118.99122188 629.14134905 119.73234737 C629.14798078 122.13123212 629.14758261 124.53006198 629.14717102 126.92895508 C629.15047323 128.67082456 629.15419954 130.41269328 629.1583125 132.15456104 C629.16829903 136.93250665 629.17204384 141.7104397 629.17470181 146.48839426 C629.17861451 151.64456112 629.18819176 156.80071812 629.19691467 161.95687866 C629.21664582 174.40010656 629.22673838 186.84333522 629.23564246 199.28657484 C629.2400285 205.14715598 629.24539427 211.00773622 629.25063133 216.86831665 C629.26763582 236.34836133 629.28213207 255.82840546 629.28938007 275.30845642 C629.29128992 280.35960898 629.29321027 285.41076153 629.29516602 290.46191406 C629.29564976 291.717331 629.2961335 292.97274794 629.2966319 294.26620781 C629.30494024 314.62341457 629.33029421 334.98056273 629.36274669 355.33774388 C629.39579473 376.23874632 629.41382656 397.13971893 629.41702431 418.04074764 C629.41919086 429.77586952 629.42796147 441.51090577 629.45348549 453.2460022 C629.47516115 463.23461214 629.48325813 473.22311566 629.47351871 483.21174645 C629.46896572 488.308447 629.47091852 493.40492778 629.49028015 498.50159836 C629.5078521 503.16735652 629.50696275 507.83273359 629.49138286 512.49849546 C629.48899778 514.18614447 629.49337681 515.87381946 629.50521151 517.56142867 C629.62134255 535.21510033 629.62134255 535.21510033 623.51728612 541.53518963 C618.50680266 545.98278721 613.93772453 546.24728954 607.51974487 546.55639648 C606.25034335 546.61966834 606.25034335 546.61966834 604.95529735 546.68421841 C595.86359687 547.10317828 586.78346054 547.12602266 577.68408203 547.09765625 C575.83219951 547.09572937 573.98031646 547.09426923 572.12843323 547.0932312 C568.16525404 547.09009528 564.20209677 547.08386133 560.23892593 547.07516479 C553.86052893 547.0613492 547.4821386 547.05568238 541.10372925 547.05102539 C525.19627801 547.03815763 509.2888456 547.01412319 493.38140869 546.98962402 C486.72302328 546.97943268 480.06463713 546.9699328 473.40625 546.9609375 C472.30838842 546.95941681 471.21052684 546.95789612 470.07939672 546.95632935 C457.90797706 546.94014711 445.73666514 546.9344994 433.56524658 546.95410156 C432.47273472 546.95584129 431.38022286 546.95758102 430.25460458 546.95937347 C425.85337113 546.96665091 421.45213936 546.97423273 417.05090952 546.98345947 C403.74955518 547.01088607 390.45000931 546.99066939 377.1489321 546.89727306 C368.45419745 546.83802037 359.75988992 546.8165838 351.06495798 546.82281971 C345.97646162 546.82475182 340.88972239 546.80797726 335.80160904 546.74264526 C331.09695232 546.68244695 326.39497088 546.67393166 321.69005251 546.70410538 C319.98663809 546.70601318 318.28307282 546.68945723 316.58007383 546.65179062 C304.97502488 546.40864126 298.26826982 548.65665767 289.39644051 556.24858093 C276.68754658 567.08770499 257.69168361 570.8955543 241.45703125 569.75 C224.81322445 567.68106952 209.97803108 561.99791134 197.4140625 550.69921875 C190.85802661 546.08453329 183.2845269 546.72771037 175.59510803 546.77967834 C174.34520456 546.78008619 173.09530109 546.78049404 171.80752176 546.78091425 C168.34983882 546.78226016 164.89230108 546.79603943 161.43465817 546.8118459 C157.70113557 546.82668093 153.9676014 546.82982192 150.23405457 546.83427429 C143.76749777 546.84345048 137.30098927 546.859622 130.8344593 546.88023567 C121.47628499 546.90979299 112.11812564 546.92540318 102.75991374 546.93704777 C87.56461894 546.95605385 72.36934488 546.98180079 57.17407227 547.01391602 C56.26500114 547.01583395 55.35593001 547.01775188 54.41931128 547.01972794 C44.27662731 547.04127533 34.13394809 547.06444881 23.99127197 547.0894165 C20.31294764 547.09844837 16.63462327 547.10746486 12.95629883 547.11645508 C12.04864047 547.11867673 11.14098211 547.12089839 10.20581896 547.12318737 C-4.93207725 547.15991695 -20.06996792 547.18498612 -35.20790011 547.20092481 C-44.54177624 547.21125399 -53.87552495 547.23165434 -63.20934761 547.26504242 C-69.60507803 547.28718922 -76.00076958 547.29856148 -82.39653748 547.30147774 C-86.08566492 547.30352505 -89.7746114 547.31050821 -93.4636879 547.33069992 C-97.46526163 547.35249864 -101.46649311 547.35098935 -105.46812439 547.3473053 C-106.630677 547.35740806 -107.79322961 547.36751083 -108.99101108 547.37791973 C-117.57715418 547.34015175 -124.57868103 546.23785272 -131 540 C-134.7838844 534.59445086 -135.14791315 530.05141082 -135.13422108 523.58601189 C-135.13774942 522.45659333 -135.13774942 522.45659333 -135.14134905 521.30435824 C-135.14803607 518.76700854 -135.14758091 516.22971008 -135.14717102 513.69235229 C-135.15046983 511.86049004 -135.15419543 510.02862852 -135.1583125 508.19676793 C-135.16833866 503.15141002 -135.17205028 498.10606401 -135.17470181 493.06069756 C-135.17860302 487.62357451 -135.18818146 482.1864609 -135.19691467 476.74934387 C-135.21668391 463.61329006 -135.22674572 450.47723546 -135.23564246 437.34117049 C-135.24002447 431.15707422 -135.24539149 424.9729788 -135.25063133 418.78888321 C-135.2676438 398.23499415 -135.28213849 377.68110563 -135.28938007 357.12721062 C-135.29129001 351.79248936 -135.29320867 346.45776811 -135.29516602 341.12304688 C-135.29540617 340.46028101 -135.29564632 339.79751515 -135.29589374 339.11466547 C-135.30378603 317.62796383 -135.3272165 296.1413174 -135.35972196 274.65463986 C-135.39402881 251.93571469 -135.41373087 229.21682031 -135.41702431 206.49786866 C-135.41919056 194.11428574 -135.4279561 181.73078398 -135.45348549 169.34722519 C-135.47517484 158.80192439 -135.48325155 148.25672446 -135.47351871 137.71140389 C-135.46896897 132.33095041 -135.47089956 126.95070511 -135.49028015 121.57028008 C-135.50787617 116.64273801 -135.50694291 111.71555656 -135.49138286 106.78801085 C-135.48900139 105.00734079 -135.49335822 103.22664599 -135.50521151 101.44601379 C-135.57101777 90.90582697 -135.50742965 81.54760573 -128.5625 73 C-120.12233309 67.01434469 -106.39235061 68.88411226 -96.6875 69.375 C-95.34965976 69.43345643 -94.01176835 69.49075362 -92.67382812 69.546875 C-89.44853194 69.68659902 -86.22423102 69.83781083 -83 70 C-83.01571045 68.76435303 -83.0314209 67.52870605 -83.04760742 66.25561523 C-83.10210151 61.65053888 -83.13642082 57.04549079 -83.16479492 52.44018555 C-83.17983724 50.4508789 -83.20027623 48.46160517 -83.22631836 46.47241211 C-83.26290246 43.60522311 -83.27977218 40.73847441 -83.29296875 37.87109375 C-83.30845261 36.98852402 -83.32393646 36.10595428 -83.33988953 35.19664001 C-83.34171912 28.41142073 -82.17604459 23.7520564 -77.875 18.3125 C-71.50221516 13.18656436 -63.75662834 11.19817807 -56 9 C-55.01 8.67 -54.02 8.34 -53 8 C-51.02520392 7.68007722 -49.04491236 7.39372177 -47.0625 7.125 C-42.80177254 6.53761576 -38.5464724 5.93667947 -34.296875 5.2734375 C-22.89057038 3.49857182 -11.49039324 2.1048455 0 1 C0 0.67 0 0.34 0 0 Z M-101 104 C-101 238.31 -101 372.62 -101 511 C-7.28 511 86.44 511 183 511 C181.79266666 507.37799999 181.08998093 507.20239104 177.8203125 505.46875 C176.92497803 504.99332764 176.02964355 504.51790527 175.10717773 504.02807617 C174.12305908 503.52381104 173.13894043 503.0195459 172.125 502.5 C171.102854 501.97317627 170.08070801 501.44635254 169.02758789 500.90356445 C136.82656983 484.63656967 102.07167964 474.19513657 66.5625 468.1875 C65.41652344 467.99269043 64.27054688 467.79788086 63.08984375 467.59716797 C45.0331888 464.70575948 27.08365818 463.64959936 8.8125 463.75 C7.83608551 463.75243713 6.85967102 463.75487427 5.85366821 463.75738525 C-12.48321015 463.8108919 -30.56177621 464.6999035 -48.75 467.125 C-67.6881343 469.60475571 -67.6881343 469.60475571 -74.0625 466.5 C-78.60162841 462.63691199 -81.54638743 458.99035603 -82.46217692 452.95318508 C-82.64703056 449.18894518 -82.67029444 445.44158959 -82.63923645 441.67468262 C-82.64555334 440.21583771 -82.6540594 438.75700092 -82.66455668 437.2981801 C-82.68700761 433.30271367 -82.67851802 429.30782665 -82.6648711 425.31234264 C-82.65559496 420.99882729 -82.67516143 416.68543033 -82.69119263 412.37194824 C-82.71501883 404.90298622 -82.72064483 397.43418921 -82.71384621 389.9651947 C-82.70404303 379.16637223 -82.7217861 368.36773262 -82.74621352 357.56893975 C-82.78510066 340.04790891 -82.80176591 322.5269304 -82.80444336 305.00585938 C-82.80709159 287.98760291 -82.82021361 270.96940758 -82.84741211 253.95117188 C-82.84908549 252.90185122 -82.85075887 251.85253056 -82.85248295 250.77141231 C-82.86094253 245.50718402 -82.86960793 240.24295608 -82.87837565 234.97872829 C-82.9508257 191.31916212 -82.98683577 147.65962128 -83 104 C-88.94 104 -94.88 104 -101 104 Z " fill="#5EA2DF" transform="translate(265,248)"/>
<path d="M0 0 C5.29447471 2.85901634 10.39280629 6.02115135 15.46582031 9.25195312 C21.55981446 13.12303401 27.76051326 16.79987199 33.98284912 20.46038818 C43.30064091 25.94202904 52.54455758 31.51287262 61.65649414 37.33203125 C67.93112671 41.33132205 74.29078967 45.17411285 80.6796875 48.98754883 C90.97379034 55.13199062 101.21137446 61.36820305 111.4375 67.625 C112.87367676 68.50285156 112.87367676 68.50285156 114.33886719 69.3984375 C117.14499492 71.11589072 119.94801481 72.83829827 122.75 74.5625 C123.99317993 75.32324829 123.99317993 75.32324829 125.26147461 76.09936523 C144.9446785 88.25084261 144.9446785 88.25084261 147.375 97 C147.47408738 102.74706802 146.08150516 106.79152616 142.234375 111.08203125 C139.27008866 113.77721338 136.16451359 116.01707008 132.8125 118.1875 C132.15918701 118.61603271 131.50587402 119.04456543 130.83276367 119.48608398 C128.70663397 120.87462272 126.57333746 122.25144634 124.4375 123.625 C123.74382324 124.07230469 123.05014648 124.51960937 122.33544922 124.98046875 C111.54008192 131.92052528 100.58491837 138.59355675 89.6038208 145.23382568 C81.47572462 150.14965613 73.39863104 155.13470711 65.38671875 160.23828125 C58.31821471 164.72972652 51.15982777 169.06819075 43.99633789 173.40600586 C37.80710172 177.16129025 31.66953708 180.98772937 25.5625 184.875 C22.52423183 186.79709801 19.48174183 188.71238043 16.4375 190.625 C15.67646973 191.10549805 14.91543945 191.58599609 14.13134766 192.08105469 C-4.31315215 203.65146293 -4.31315215 203.65146293 -12.98828125 202.2265625 C-17.99931118 200.83233159 -21.33292634 198.80444827 -24.5625 194.625 C-27.10159097 189.56597955 -27.93927714 185.90342992 -27.95018005 180.15541077 C-27.95556559 179.4363691 -27.96095113 178.71732744 -27.96649987 177.97649664 C-27.9807248 175.5844951 -27.97368955 173.19305125 -27.96655273 170.80102539 C-27.97225917 169.07900042 -27.97922449 167.35697924 -27.98735046 165.63496399 C-28.00526659 160.96964616 -28.00411642 156.30451658 -27.99840808 151.6391747 C-27.99531405 147.74008378 -28.00141105 143.8410289 -28.00744683 139.94194311 C-28.02148531 130.74161962 -28.01993633 121.54138901 -28.00854492 112.34106445 C-27.99706357 102.85872536 -28.01114121 93.3766691 -28.0379414 83.89436728 C-28.0601126 75.74382987 -28.06673259 67.59338114 -28.06086498 59.44281572 C-28.05749771 54.57893025 -28.05989532 49.71522608 -28.07711601 44.85136604 C-28.09260576 40.27691971 -28.08860714 35.70289176 -28.06981087 31.12846184 C-28.06613064 29.45314487 -28.06921694 27.77779677 -28.07969666 26.10250854 C-28.1819046 8.40777194 -28.1819046 8.40777194 -22.07984066 2.08990574 C-15.27783716 -3.94815176 -7.84513377 -3.79430857 0 0 Z " fill="#5CA2DE" transform="translate(453.5625,423.375)"/>
<path d="M0 0 C0.58934326 0.43932861 1.17868652 0.87865723 1.78588867 1.33129883 C7.6403663 5.73545042 13.35311036 10.33147104 19.04296875 14.9453125 C21.68580169 17.08830687 24.35883415 19.18394456 27.0625 21.25 C32.51357383 25.46453535 37.73641613 29.95064084 42.96728516 34.43310547 C44.21410496 35.49689825 45.47120316 36.5486258 46.73046875 37.59765625 C64.66884019 52.74322735 77.7951732 74.13744169 80.4375 97.6875 C81.40704572 120.66347886 76.56632414 141.43194558 61.1484375 159.09375 C58.44920982 161.60809907 56.20919308 162.58684438 52.5625 163.0625 C48.53643434 162.57937212 46.52592823 161.28458738 43.4375 158.6875 C40.85658256 154.53558934 41.46503625 151.35827286 42.4375 146.6875 C44.14453125 143.6171875 44.14453125 143.6171875 46.25 140.5625 C54.15168492 128.46970085 56.92803683 114.83005024 54.24609375 100.625 C53.16699414 96.70479273 51.52225396 93.29466665 49.55859375 89.74609375 C48.4375 87.6875 48.4375 87.6875 47.4375 84.6875 C46.7775 84.3575 46.1175 84.0275 45.4375 83.6875 C43.4375 82.6875 43.4375 82.6875 42.4375 79.6875 C40.69064283 78.65882963 40.69064283 78.65882963 38.4375 77.6875 C37.47199219 77.10355469 36.50648438 76.51960938 35.51171875 75.91796875 C25.51662447 69.88863276 15.72744439 65.89106664 4.20214844 63.62451172 C3.30800232 63.44798065 2.4138562 63.27144958 1.49261475 63.08956909 C0.81442688 62.95688629 0.13623901 62.82420349 -0.5625 62.6875 C-0.56065641 63.27758158 -0.55881283 63.86766315 -0.55691338 64.47562599 C-0.5125733 78.89268388 -0.47956559 93.30973564 -0.45887566 107.72684669 C-0.44860195 114.69910774 -0.43461717 121.67132303 -0.41162109 128.64355469 C-0.3894123 135.38035074 -0.37790902 142.11708958 -0.37274551 148.8539238 C-0.36906879 151.41574219 -0.36188939 153.97755818 -0.35103989 156.53935623 C-0.2489995 181.64666683 -1.21914522 203.79052243 -18.5625 223.6875 C-19.2225 223.6875 -19.8825 223.6875 -20.5625 223.6875 C-20.87767578 224.54214844 -20.87767578 224.54214844 -21.19921875 225.4140625 C-27.10609166 235.2644924 -43.92103171 241.53708476 -54.3125 244.5 C-73.75053689 248.80816649 -92.21197739 246.71787474 -109.375 236.3125 C-117.59635914 230.81978161 -123.12496119 224.57883233 -127.5625 215.6875 C-127.5625 215.0275 -127.5625 214.3675 -127.5625 213.6875 C-128.2225 213.3575 -128.8825 213.0275 -129.5625 212.6875 C-134.20363305 197.41759928 -131.48919315 182.3147738 -124.18359375 168.46875 C-121.9668434 164.66555422 -119.65183695 160.8512788 -116.5625 157.6875 C-115.9025 157.6875 -115.2425 157.6875 -114.5625 157.6875 C-114.253125 156.83478516 -114.253125 156.83478516 -113.9375 155.96484375 C-112.07540206 152.88074403 -109.5032427 151.20811759 -106.5625 149.25 C-105.97654053 148.85530518 -105.39058105 148.46061035 -104.78686523 148.05395508 C-90.42571969 138.53663695 -75.49908136 135.24582952 -58.5625 133.6875 C-58.5625 134.3475 -58.5625 135.0075 -58.5625 135.6875 C-56.85126953 135.61595703 -56.85126953 135.61595703 -55.10546875 135.54296875 C-50.40330908 135.54607522 -46.33840652 136.60792773 -41.875 138 C-41.14216797 138.21333984 -40.40933594 138.42667969 -39.65429688 138.64648438 C-35.54174891 139.88877794 -32.24735267 141.43768559 -28.5625 143.6875 C-28.56710896 142.98881302 -28.57171793 142.29012604 -28.57646656 141.57026672 C-28.68699864 124.5516579 -28.76968213 107.53314052 -28.82156086 90.51425171 C-28.84731739 82.28394664 -28.88241878 74.05388151 -28.93969727 65.82373047 C-28.98961078 58.64839291 -29.02180956 51.47322917 -29.03294247 44.29772282 C-29.03944791 40.49999022 -29.05468325 36.70275478 -29.09115028 32.90518188 C-29.12523609 29.32639025 -29.13552808 25.74829776 -29.12803841 22.16935921 C-29.13005729 20.23850178 -29.15688656 18.30771951 -29.18460083 16.37705994 C-29.14249598 9.24819952 -28.45953055 4.10643534 -23.5625 -1.3125 C-15.66946299 -7.28040603 -7.5119614 -5.84462069 0 0 Z " fill="#7A81EE" transform="translate(789.5625,194.3125)"/>
<path d="M0 0 C8.21398401 0.18942102 8.21398401 0.18942102 11 3.0625 C13.03855489 9.050755 13.12517047 15.28534205 13.12863445 21.56094646 C13.13038749 22.28117293 13.13214053 23.0013994 13.13394669 23.74345091 C13.13858103 26.14536768 13.13614786 28.54722324 13.13371277 30.94914246 C13.13558201 32.69314969 13.13788317 34.4371565 13.14057809 36.18116266 C13.14668804 40.96490373 13.14656345 45.74862731 13.14538372 50.5323714 C13.14517952 55.69461325 13.15070016 60.85684951 13.15544128 66.01908875 C13.16374298 76.12766434 13.16649587 86.23623411 13.16705366 96.34481283 C13.16752886 104.55825347 13.16958379 112.77169219 13.17275429 120.98513222 C13.18155799 144.26497667 13.18617387 167.54481652 13.18542381 190.82466265 C13.18538386 192.07933794 13.1853439 193.33401323 13.18530273 194.62670898 C13.18526185 195.88291285 13.18522097 197.13911672 13.18517885 198.43338738 C13.18477202 218.81200027 13.19435178 239.19059471 13.2084411 259.56920227 C13.22278945 280.48714054 13.2297122 301.40506981 13.22884732 322.32301313 C13.22851492 334.06974747 13.23128134 345.81646245 13.24202538 357.56319237 C13.25110991 367.55955371 13.25332238 377.55588691 13.24651595 387.55225059 C13.24324094 392.6545917 13.2432294 397.75687875 13.2518692 402.85921478 C13.25969146 407.52657384 13.25834687 412.19383558 13.24958507 416.86119214 C13.24804065 418.55282126 13.24990137 420.24445748 13.25544515 421.93607821 C13.26246614 424.22969684 13.25724261 426.52297035 13.24888897 428.81657696 C13.24910634 430.09227761 13.24932371 431.36797826 13.24954766 432.68233651 C13.00816992 435.89138334 12.38343853 438.11768162 11 441 C10.67 441 10.34 441 10 441 C10.165 439.741875 10.33 438.48375 10.5 437.1875 C11.22675705 430.58439308 11.42210292 424.02273128 10.50200844 417.43382072 C9.89787227 412.67886552 9.84403718 407.97591779 9.83505249 403.18777466 C9.82940771 402.22647361 9.82376293 401.26517256 9.81794709 400.27474117 C9.80028961 397.06093264 9.78953653 393.84713936 9.77880859 390.63330078 C9.76759489 388.31469981 9.75598201 385.99610073 9.74400234 383.67750359 C9.71264788 377.34690781 9.68754828 371.01630122 9.66383386 364.68567276 C9.64837806 360.67990763 9.63135981 356.67415123 9.61356163 352.668396 C9.54390826 336.96356619 9.48120389 321.258722 9.42430288 305.55384088 C9.38921364 295.88143976 9.35183047 286.20905035 9.31287088 276.53666408 C8.84220977 159.44432905 8.84220977 159.44432905 9.23046875 104.5 C9.2367224 103.60867544 9.24297606 102.71735087 9.24941921 101.79901648 C9.36832967 85.04947087 9.52035544 68.30042104 9.71846676 51.5516243 C9.78321435 46.06318492 9.84039782 40.57466935 9.89800453 35.08615112 C9.93977929 31.4614789 9.99354397 27.83713681 10.04862976 24.21264648 C10.07271621 22.09505773 10.09633484 19.97746357 10.11938477 17.85986328 C10.13749395 16.91892382 10.15560314 15.97798435 10.17426109 15.00853157 C10.21115777 10.54535255 10.1351582 7.05235938 8 3 C4.07678022 3.23011733 2.44822741 3.52589868 -0.30078125 6.43359375 C-0.96464844 7.42488281 -1.62851562 8.41617187 -2.3125 9.4375 C-2.98925781 10.42621094 -3.66601562 11.41492188 -4.36328125 12.43359375 C-5.9735126 14.8604601 -5.9735126 14.8604601 -7 17 C-7.66 16.67 -8.32 16.34 -9 16 C-8.51789062 15.18015625 -8.03578125 14.3603125 -7.5390625 13.515625 C-6.90742187 12.43796875 -6.27578125 11.3603125 -5.625 10.25 C-4.99851562 9.18265625 -4.37203125 8.1153125 -3.7265625 7.015625 C-2.40227337 4.70261322 -1.15363154 2.40048583 0 0 Z M-10 17 C-9.67 17.99 -9.34 18.98 -9 20 C-10.10107507 21.39555546 -11.21674709 22.78245258 -12.40853191 24.10138788 C-19.27068059 31.76425255 -20.42397194 38.13182823 -20.19581604 48.39511108 C-20.19946897 49.90945844 -20.20753044 51.42380037 -20.21956962 52.93810427 C-20.23983752 57.06516108 -20.19830839 61.18955668 -20.14599717 65.3162446 C-20.10050223 69.77985316 -20.11335296 74.24335408 -20.11894226 78.70713806 C-20.12077055 86.43276334 -20.08623142 94.15752855 -20.02673531 101.8829155 C-19.94074142 113.06853315 -19.9114854 124.25374766 -19.89591002 135.43965895 C-19.8691755 153.61202799 -19.79856541 171.78394629 -19.69946289 189.95605469 C-19.60353984 207.56507049 -19.5255954 225.17399901 -19.47387695 242.78320312 C-19.47068432 243.86753405 -19.46749168 244.95186497 -19.46420229 246.06905441 C-19.44205067 253.66582556 -19.42107155 261.26259973 -19.40039062 268.859375 C-19.37733218 277.3009146 -19.35396447 285.74245322 -19.33006287 294.18399048 C-19.32719233 295.20891938 -19.3243218 296.23384829 -19.32136428 297.28983565 C-19.28131132 311.44643881 -19.22546823 325.60289751 -19.1570536 339.7593908 C-19.13014746 345.43140732 -19.10588594 351.10343588 -19.0816306 356.77546428 C-19.05883574 362.02093921 -19.03148835 367.26636303 -19.00046084 372.51179536 C-18.98262392 375.71280857 -18.96920993 378.91382955 -18.9569739 382.1148686 C-18.95051769 383.56764064 -18.94226313 385.0204062 -18.93190462 386.47315566 C-18.88061015 393.77794513 -18.9671082 401.05987516 -19.3783102 408.3530674 C-19.4820074 410.19473124 -19.4820074 410.19473124 -19.58779949 412.07360041 C-20 415 -20 415 -22 417 C-24.08223736 417.24839699 -24.08223736 417.24839699 -26.71266365 417.24609566 C-27.71289688 417.25007775 -28.71313011 417.25405985 -29.74367344 417.25816262 C-30.85065897 417.25233693 -31.9576445 417.24651125 -33.09817505 417.24050903 C-34.26777987 417.24221788 -35.4373847 417.24392673 -36.64243209 417.24568737 C-39.89882226 417.24842069 -43.1550548 417.2421374 -46.41142631 417.23213124 C-49.91926311 417.2235199 -53.42709213 417.22641525 -56.93493652 417.22793579 C-63.01580689 417.22898612 -69.09663445 417.22269416 -75.17749405 417.21146011 C-83.96946422 417.19522799 -92.76141363 417.18999946 -101.55339716 417.18748413 C-115.81669709 417.18310343 -130.07997419 417.16978416 -144.34326172 417.15087891 C-158.20133347 417.13252981 -172.05939903 417.11836856 -185.91748047 417.10986328 C-186.77123576 417.10933783 -187.62499105 417.10881239 -188.50461771 417.10827102 C-192.78752078 417.105661 -197.07042389 417.10313357 -201.35332704 417.10064721 C-236.9022343 417.07990302 -272.45111505 417.0446673 -308 417 C-308 416.01 -308 415.02 -308 414 C-306.68 413.67 -305.36 413.34 -304 413 C-304 413.33 -304 413.66 -304 414 C-210.94 414.33 -117.88 414.66 -22 415 C-22.13921875 373.68490234 -22.13921875 373.68490234 -22.28125 331.53515625 C-22.32210956 314.12174079 -22.3609993 296.7083547 -22.390625 279.29492188 C-22.40628811 270.14965704 -22.422452 261.00439331 -22.43945312 251.85913086 C-22.44156312 250.7129125 -22.44367311 249.56669414 -22.44584703 248.38574189 C-22.48064677 229.8780237 -22.54372005 211.37050423 -22.61722237 192.8629039 C-22.69202029 173.87075442 -22.73646722 154.87870902 -22.75270796 135.88641828 C-22.76368797 124.16593221 -22.79837329 112.4460076 -22.86333174 100.72569435 C-22.90560195 92.68989456 -22.91840482 84.65438527 -22.90801102 76.61848236 C-22.90288401 71.98114702 -22.91077176 67.34479312 -22.9536438 62.70763206 C-22.99262829 58.45991941 -22.99451065 54.21384624 -22.96719116 49.96605747 C-22.96381585 48.43155411 -22.97392429 46.8969477 -22.99906546 45.36264659 C-23.11062125 38.13282449 -23.12974873 32.41666617 -18.09612274 26.74625301 C-16.73883306 25.48871947 -15.37422652 24.23900257 -14 23 C-12.52696109 21.05677046 -11.27900246 19.078379 -10 17 Z " fill="#7A7CE9" transform="translate(881,344)"/>
<path d="M0 0 C0.66 0.33 1.32 0.66 2 1 C3.09824844 72.46736986 3.09824844 72.46736986 3.125 107.9375 C3.12749756 109.0927417 3.12999512 110.2479834 3.13256836 111.43823242 C3.16848626 131.42151621 3.16848626 131.42151621 2.4296875 138.12890625 C1.90210342 143.21313493 2.16754911 148.10818878 2.46484375 153.19311523 C3.23578426 168.23440426 3.14662895 183.28368322 3.1343255 198.33979988 C3.13174549 202.50302311 3.13415515 206.66624443 3.13571167 210.82946777 C3.13751885 217.82218833 3.13516722 224.81489825 3.13037109 231.80761719 C3.12494845 239.8043162 3.12668251 247.80098963 3.1321975 255.79768801 C3.13679106 262.74546665 3.13734868 269.69323776 3.13475883 276.64101744 C3.13322764 280.7541365 3.13291207 284.86724371 3.13629532 288.98036194 C3.13961398 293.58913452 3.13740215 298.19787373 3.12939453 302.80664062 C3.12819115 303.53498139 3.12698777 304.26332216 3.12574792 305.01373386 C3.09669967 316.95601916 2.78654178 328.87671798 2.26107979 340.80741119 C2.21334356 341.96227776 2.16560734 343.11714432 2.11642456 344.30700684 C2.07013853 345.31475914 2.0238525 346.32251144 1.97616386 347.3608017 C1.9982373 349.80482961 2.36080811 351.66263952 3 354 C3.09706427 356.94853845 3.13115312 359.86806161 3.11328125 362.81640625 C3.1107283 363.75819229 3.10817535 364.69997833 3.10554504 365.67030334 C3.05733218 374.46394328 2.85767775 383.25371123 2.66015244 392.04493332 C2.54909853 397.08631582 2.44938776 402.12794164 2.34976006 407.16956139 C2.26258359 411.51669219 2.16566525 415.863243 2.05004883 420.2097168 C1.93696972 424.48178079 1.84892059 428.75371362 1.77779579 433.02667427 C1.74653538 434.6371317 1.70628905 436.2474427 1.65654564 437.85743523 C1.0267987 447.56996436 1.0267987 447.56996436 4.3293457 456.40844727 C13.11955849 464.93830454 29.40243483 462.12467843 40.99720192 462.07530212 C44.1842308 462.06194051 47.37122124 462.05522607 50.55827332 462.04992676 C55.29601816 462.04157392 60.03374876 462.03084685 64.77148438 462.01831055 C78.02081485 461.98456322 91.2701634 461.97333365 104.51953125 461.96875 C105.60070685 461.96831853 105.60070685 461.96831853 106.70372438 461.96787834 C150.91593905 461.95201399 195.12724158 462.22662007 239.33855772 462.48177338 C242.51195071 462.5000689 245.68534424 462.51826781 248.85873795 462.53643799 C274.90585772 462.6856469 300.95294583 462.83974681 327 463 C327 463.33 327 463.66 327 464 C320.17202439 465.04024378 313.4881933 465.14563948 306.58874512 465.14044189 C305.35023788 465.14341302 304.11173064 465.14638414 302.83569288 465.1494453 C299.41452029 465.1565962 295.99339794 465.1593023 292.57222152 465.16004276 C288.87619073 465.16190116 285.18017066 465.16945214 281.48414612 465.17617798 C273.41202758 465.18972689 265.33991404 465.19577992 257.26778603 465.20018864 C252.22563701 465.20295546 247.18348989 465.20719348 242.14134216 465.21169281 C228.17375051 465.22387828 214.20616039 465.23418077 200.23856354 465.2375679 C198.89922442 465.23789725 198.89922442 465.23789725 197.53282794 465.23823325 C196.63784718 465.23845153 195.74286641 465.23866981 194.82076502 465.2388947 C193.00730038 465.23933816 191.19383573 465.23978473 189.38037109 465.24023438 C188.48083731 465.2404558 187.58130353 465.24067723 186.65451115 465.24090537 C172.06868428 465.24485609 157.48290727 465.2623217 142.89709967 465.2855939 C127.91284136 465.30930857 112.92860808 465.32176971 97.94433069 465.32293582 C89.53475378 465.32385222 81.12524196 465.32959636 72.71568298 465.34775543 C65.55791762 465.36315759 58.40023749 465.368276 51.2424587 465.36001733 C47.5918174 465.35611196 43.94134777 465.35703496 40.29072762 465.37107468 C36.33082936 465.38616458 32.37117244 465.37794424 28.41125488 465.36749268 C27.26105724 465.37554908 26.11085959 465.38360548 24.92580748 465.39190602 C16.3787293 465.3390923 9.38969158 464.20712896 3 458 C-0.78906862 452.58704483 -1.14742359 448.04336288 -1.12584114 441.56925201 C-1.12729458 440.81450873 -1.12874802 440.05976545 -1.13024551 439.28215116 C-1.13391139 436.73873992 -1.13041634 434.1953884 -1.12698364 431.65197754 C-1.12813523 429.81583961 -1.129723 427.97970191 -1.13171089 426.1435647 C-1.13589907 421.08661799 -1.1338158 416.02969007 -1.13072467 410.97274327 C-1.12846873 405.52346877 -1.13195116 400.07419756 -1.13470459 394.62492371 C-1.13915918 383.94529512 -1.13818719 373.26567354 -1.13529195 362.58604467 C-1.1330367 353.90911322 -1.13272592 345.23218374 -1.13381577 336.55525208 C-1.133969 335.32191317 -1.13412223 334.08857427 -1.13428011 332.81786147 C-1.13459982 330.31262553 -1.13492404 327.80738959 -1.1352527 325.30215365 C-1.13802517 302.46233388 -1.13514642 279.62251728 -1.1299101 256.78269819 C-1.12516435 235.92397773 -1.12558897 215.06526338 -1.13037109 194.20654297 C-1.13572345 170.78214043 -1.1378319 147.35774081 -1.13475883 123.93333769 C-1.13444027 121.4371411 -1.1341259 118.94094451 -1.13381577 116.44474792 C-1.13366149 115.21646166 -1.13350721 113.98817539 -1.13334826 112.72266832 C-1.1324836 104.05272633 -1.1339449 95.3827865 -1.13629532 86.71284485 C-1.13909532 76.15202568 -1.13835079 65.59121394 -1.13301457 55.03039563 C-1.13038029 49.63860866 -1.12936792 44.24683411 -1.13266373 38.85504723 C-1.13563225 33.92422859 -1.1340245 28.99343393 -1.12868617 24.06261748 C-1.12756438 22.27398346 -1.12814795 20.48534744 -1.13056196 18.6967147 C-1.13358136 16.27469656 -1.13050531 13.8527617 -1.12584114 11.43074799 C-1.12818231 10.72846571 -1.13052347 10.02618343 -1.13293558 9.30261987 C-1.12034505 6.05462834 -0.99569952 3.10681976 0 0 Z " fill="#4EB7CD" transform="translate(131,330)"/>
<path d="M0 0 C1.18613892 0.00785522 1.18613892 0.00785522 2.39624023 0.01586914 C3.67724609 0.02070313 3.67724609 0.02070313 4.98413086 0.02563477 C5.88196289 0.03401367 6.77979492 0.04239258 7.70483398 0.05102539 C8.6065332 0.05553711 9.50823242 0.06004883 10.43725586 0.06469727 C12.67234712 0.07652315 14.90730835 0.09300319 17.14233398 0.11352539 C17.14233398 0.44352539 17.14233398 0.77352539 17.14233398 1.11352539 C11.20233398 1.11352539 5.26233398 1.11352539 -0.85766602 1.11352539 C-0.85766602 135.42352539 -0.85766602 269.73352539 -0.85766602 408.11352539 C93.85233398 408.11352539 188.56233398 408.11352539 286.14233398 408.11352539 C286.14233398 408.77352539 286.14233398 409.43352539 286.14233398 410.11352539 C249.75869103 410.13639785 213.37504933 410.15402672 176.99140067 410.16459072 C172.69918247 410.16584148 168.40696428 410.16713579 164.11474609 410.16845703 C163.2602172 410.16871934 162.40568831 410.16898165 161.5252646 410.16925191 C147.67598943 410.17360712 133.8267184 410.18149385 119.97744568 410.19067819 C105.7743056 410.20001887 91.57116768 410.20558188 77.36802465 410.20761389 C68.59894043 410.20898825 59.82986791 410.21333418 51.0607873 410.22144186 C45.05328283 410.22671442 39.04578444 410.22832852 33.03827783 410.22702677 C29.5686166 410.22638419 26.09897585 410.22739189 22.62931824 410.23273087 C18.87311673 410.23767246 15.11696612 410.2365219 11.36076355 410.23377991 C10.25669086 410.23669275 9.15261817 410.23960559 8.01508874 410.2426067 C6.51175232 410.23962013 6.51175232 410.23962013 4.97804546 410.23657322 C4.11038451 410.23695294 3.24272355 410.23733266 2.34876984 410.23772389 C0.14233398 410.11352539 0.14233398 410.11352539 -2.85766602 409.11352539 C-3.63074521 386.97734688 -4.00701417 364.87167926 -3.98839068 342.72268128 C-3.98607129 338.61492403 -3.98964771 334.5071705 -3.99237061 330.39941406 C-3.996759 322.40559863 -3.99588331 314.41179272 -3.99295796 306.41797696 C-3.99067653 299.90781236 -3.9904031 293.39765039 -3.99148178 286.8874855 C-3.99163501 285.95215775 -3.99178825 285.01683 -3.99194612 284.05315898 C-3.99226593 282.15162054 -3.99259014 280.2500821 -3.99291871 278.34854366 C-3.99575311 260.62321641 -3.9925186 242.89789437 -3.98711835 225.17256798 C-3.9826507 210.0410681 -3.98342991 194.90957591 -3.98803711 179.77807617 C-3.99341664 162.10232833 -3.99548015 144.42658504 -3.99242485 126.75083649 C-3.99210638 124.85786891 -3.991792 122.96490133 -3.99148178 121.07193375 C-3.99132751 120.1411404 -3.99117323 119.21034706 -3.99101428 118.25134786 C-3.99015932 111.76578875 -3.99158967 105.28023258 -3.99396133 98.79467392 C-3.99679729 90.86712968 -3.99594247 82.93959531 -3.99068059 75.01205216 C-3.98809411 70.98566624 -3.98694993 66.95929663 -3.99032974 62.93291092 C-4.00256515 46.9550599 -3.88144912 30.99229501 -3.41207886 15.02053833 C-3.39265976 14.31672594 -3.37324067 13.61291354 -3.35323311 12.8877735 C-3.29758922 10.92458923 -3.23377978 8.96164141 -3.16952324 6.99872017 C-3.13368909 5.88283803 -3.09785494 4.76695589 -3.0609349 3.61725914 C-2.78106109 0.16995576 -2.78106109 0.16995576 0 0 Z " fill="#49B5CB" transform="translate(164.857666015625,350.886474609375)"/>
<path d="M0 0 C1.98 0.99 1.98 0.99 4 2 C0.11892031 4.54580593 -4.06090151 4.44635342 -8.54849243 4.61691284 C-9.39039301 4.6545285 -10.23229358 4.69214416 -11.09970629 4.73089969 C-20.14040126 5.10335151 -29.1772275 5.14085367 -38.22412109 5.12939453 C-40.06615228 5.13075502 -41.9081832 5.13253855 -43.75021362 5.13470459 C-48.71799126 5.13922571 -53.68574787 5.13750508 -58.65352583 5.1343255 C-63.97243769 5.13174609 -69.29134806 5.13415717 -74.61026001 5.13571167 C-83.61631581 5.13752907 -92.62236342 5.13515054 -101.62841797 5.13037109 C-110.66032456 5.12563051 -119.69221459 5.12546031 -128.72412109 5.13037109 C-190.48929952 5.16317225 -252.24003343 4.81304943 -314 4 C-314 3.67 -314 3.34 -314 3 C-246.70209222 2.15594948 -179.41507635 1.86347746 -112.11221015 1.92797339 C-99.82983323 1.93952149 -87.54745545 1.94473911 -75.26507437 1.94967639 C-50.1767102 1.95989048 -25.08835575 1.97725572 0 2 C0 1.34 0 0.68 0 0 Z " fill="#6E83D9" transform="translate(881,790)"/>
<path d="M0 0 C2.55270923 2.21974715 3.37192791 3.70170511 4 7 C4.08852168 8.41339348 4.12900545 9.83029441 4.13142776 11.24645519 C4.13526891 12.09185083 4.13911005 12.93724646 4.1430676 13.80826014 C4.14220112 14.73207919 4.14133463 15.65589823 4.14044189 16.60771179 C4.14341302 17.59299907 4.14638414 18.57828635 4.1494453 19.59343082 C4.15813648 22.90433677 4.15964091 26.21520658 4.16113281 29.52612305 C4.16576071 31.89631732 4.17078533 34.26651084 4.17617798 36.63670349 C4.18930726 43.08314501 4.19578482 49.52957961 4.20018864 55.97603202 C4.20295287 60.00305866 4.20719059 64.0300829 4.21169281 68.05710793 C4.22388496 79.21169096 4.23418398 90.36627207 4.2375679 101.52086163 C4.23778747 102.23461901 4.23800703 102.94837639 4.23823325 103.68376278 C4.23845153 104.39920866 4.23866981 105.11465454 4.2388947 105.85178059 C4.23933816 107.30149631 4.23978473 108.75121202 4.24023438 110.20092773 C4.2404558 110.92003371 4.24067723 111.63913968 4.24090537 112.38003675 C4.24485154 124.02641198 4.26230023 135.67272457 4.2855939 147.31907561 C4.30932848 159.28268948 4.32177073 171.24627195 4.32293582 183.20990974 C4.32385146 189.92440027 4.32957574 196.6388092 4.34775543 203.35327721 C4.36423243 209.67091681 4.36639329 215.98840164 4.35761642 222.30605507 C4.35684584 224.62275227 4.36119155 226.93945778 4.37107468 229.25613403 C4.38379222 232.42339663 4.37791801 235.59011095 4.36749268 238.75737 C4.37554908 239.67003543 4.38360548 240.58270087 4.39190602 241.52302283 C4.34431781 247.7221613 3.855745 254.7070946 -0.38113284 259.59255809 C-4.78985913 263.4023794 -8.18326821 265.32315177 -14 265 C-14.33 264.34 -14.66 263.68 -15 263 C-14.36191406 262.95101563 -13.72382812 262.90203125 -13.06640625 262.8515625 C-11.82697266 262.73941406 -11.82697266 262.73941406 -10.5625 262.625 C-9.73878906 262.55539062 -8.91507813 262.48578125 -8.06640625 262.4140625 C-7.38449219 262.27742188 -6.70257812 262.14078125 -6 262 C-5.67 261.34 -5.34 260.68 -5 260 C-4.01 259.34 -3.02 258.68 -2 258 C-1.67 257.01 -1.34 256.02 -1 255 C-0.34 255 0.32 255 1 255 C0.99476318 254.41138184 0.98952637 253.82276367 0.98413086 253.21630859 C0.88624548 240.18392301 1.01894306 227.18351874 1.42512894 214.15862465 C2.05717223 193.43697844 2.15574457 172.72432914 2.13037109 151.99438477 C2.12456297 147.18743959 2.12804634 142.38054892 2.13394356 137.57360554 C2.13756516 133.79961233 2.13640511 130.02563202 2.13381577 126.25163841 C2.13315664 124.47722555 2.1339387 122.70281146 2.13629532 120.92840004 C2.20849506 110.26217428 2.20849506 110.26217428 1.49560547 99.62939453 C0.66836485 91.87871449 0.89065673 84.07605288 0.92483521 76.29159737 C0.93772059 73.32817493 0.94414429 70.36479779 0.94897461 67.40135193 C0.96033237 61.12171406 0.97960502 54.84211416 1 48.5625 C1.02362406 41.25752472 1.04397914 33.9525703 1.05593872 26.64756584 C1.06241582 23.72933481 1.07491688 20.81116908 1.08764648 17.89295959 C1.09127794 16.10906023 1.09462981 14.32516026 1.09765625 12.54125977 C1.10282257 11.7313559 1.10798889 10.92145203 1.11331177 10.08700562 C1.11364568 6.54936495 0.95256266 3.40325038 0 0 Z " fill="#7C7DE9" transform="translate(839,452)"/>
<path d="M0 0 C0.99 0.33 1.98 0.66 3 1 C5.94662242 1.10406484 8.87005543 1.15047278 11.81706238 1.15148926 C12.72965846 1.15572167 13.64225454 1.15995408 14.58250505 1.16431475 C17.65420744 1.17737617 20.72588385 1.18337407 23.79760742 1.18945312 C25.99553588 1.19739384 28.19346276 1.20578166 30.39138794 1.21458435 C35.13528677 1.23267104 39.87918205 1.24767729 44.62309837 1.26036072 C52.14485751 1.28059573 59.6665781 1.30825475 67.18830872 1.33703613 C77.75647133 1.37676965 88.32464006 1.41370355 98.89282227 1.44775391 C99.89913866 1.45099811 99.89913866 1.45099811 100.92578468 1.45430785 C105.00106513 1.46742794 109.07634583 1.48046663 113.15162659 1.49348927 C119.22421318 1.51290943 125.29679928 1.53248147 131.36938477 1.55224609 C132.03307492 1.55440496 132.69676506 1.55656383 133.38056704 1.55878812 C144.5181924 1.59513236 155.65580233 1.63515417 166.79340631 1.67754889 C174.24726044 1.70565083 181.70111083 1.72933682 189.15499055 1.74947357 C193.83239513 1.7630304 198.50978014 1.78043272 203.18716812 1.79878426 C205.32984855 1.80642646 207.47253516 1.81254389 209.61522484 1.81687737 C224.4317387 1.8479643 239.200746 2.28193559 254 3 C254 3.33 254 3.66 254 4 C169.85 4 85.7 4 -1 4 C-1 1 -1 1 0 0 Z " fill="#7181E1" transform="translate(574,757)"/>
<path d="M0 0 C1 1 1 1 1.11352539 4.23461914 C1.11336631 5.66814126 1.10767407 7.10166912 1.09765625 8.53515625 C1.09553383 9.66503212 1.09553383 9.66503212 1.09336853 10.81773376 C1.08775376 13.2326956 1.07519883 15.64756601 1.0625 18.0625 C1.0574869 19.69596221 1.05292366 21.32942586 1.04882812 22.96289062 C1.03862875 26.9753243 1.01905645 30.98755936 1 35 C-8.9 35 -18.8 35 -29 35 C-29.33 34.34 -29.66 33.68 -30 33 C-25.9170667 32.8030007 -21.83364734 32.61904524 -17.75 32.4375 C-16.59113281 32.38142578 -15.43226563 32.32535156 -14.23828125 32.26757812 C-13.12324219 32.21923828 -12.00820313 32.17089844 -10.859375 32.12109375 C-9.83295898 32.0739624 -8.80654297 32.02683105 -7.74902344 31.97827148 C-5 32 -5 32 -1 33 C-1.33 22.77 -1.66 12.54 -2 2 C-40.16514986 3.17043409 -40.16514986 3.17043409 -78 8 C-78.78584473 8.1355127 -79.57168945 8.27102539 -80.38134766 8.41064453 C-108.8666738 13.39996747 -137.0324445 22.27326151 -163 35 C-164.00643555 35.49185791 -164.00643555 35.49185791 -165.03320312 35.99365234 C-172.80517569 39.80469722 -180.47426019 43.71237187 -187.9609375 48.06640625 C-188.63382813 48.37449219 -189.30671875 48.68257813 -190 49 C-190.66 48.67 -191.32 48.34 -192 48 C-175.11512872 37.65533312 -157.64747297 28.69726218 -139 22 C-137.46883545 21.44916748 -137.46883545 21.44916748 -135.90673828 20.88720703 C-93.48379303 5.81514917 -45.27432331 -3.60425774 0 0 Z " fill="#7085DF" transform="translate(743,248)"/>
<path d="M0 0 C0.99 0.33 1.98 0.66 3 1 C2.01 1.78375 1.02 2.5675 0 3.375 C-1.485 4.674375 -1.485 4.674375 -3 6 C-3 6.66 -3 7.32 -3 8 C-3.66 8 -4.32 8 -5 8 C-6.36764704 18.62544495 -6.13351048 29.29558962 -6.11352539 39.98510742 C-6.11324298 42.10492959 -6.11340231 44.22475186 -6.1139679 46.34457397 C-6.11425376 52.07308738 -6.10839111 57.80157967 -6.10139394 63.53008819 C-6.0951253 69.52651216 -6.09455383 75.52293666 -6.09336853 81.5193634 C-6.09026555 92.86273604 -6.08206611 104.206099 -6.07201904 115.54946738 C-6.06082579 128.46845966 -6.05533937 141.38745242 -6.05032361 154.30644834 C-6.03988261 180.87097092 -6.02230322 207.43548492 -6 234 C-6.99 234 -7.98 234 -9 234 C-9.04673071 205.73177442 -9.08199412 177.46355463 -9.10362434 149.19529819 C-9.11393479 136.06972016 -9.12799074 122.94416614 -9.15087891 109.81860352 C-9.17081982 98.37772907 -9.18371812 86.93687202 -9.18817699 75.49598068 C-9.19078316 69.43872579 -9.1969041 63.38152064 -9.21146011 57.32428169 C-9.22505504 51.6206639 -9.22921874 45.91711626 -9.22621536 40.21348381 C-9.22676467 38.12254836 -9.23073068 36.03161051 -9.23841095 33.94068909 C-9.24840204 31.07984517 -9.24595367 28.21926404 -9.24050903 25.3584137 C-9.24633472 24.53640254 -9.2521604 23.71439139 -9.25816262 22.8674708 C-9.21857297 15.13962818 -8.69847221 7.69847221 -3 2 C-2.01 1.34 -1.02 0.68 0 0 Z " fill="#757AE3" transform="translate(817,446)"/>
<path d="M0 0 C1.98 0.99 1.98 0.99 4 2 C0.29771982 4.34075431 -3.41994741 4.4463036 -7.67578125 4.62109375 C-8.48694901 4.65883408 -9.29811676 4.6965744 -10.13386536 4.73545837 C-23.40181956 5.26662764 -36.69643072 5.10963239 -49.97259521 5.06866455 C-53.70763573 5.05826914 -57.44268343 5.05383288 -61.17773438 5.04882812 C-68.45184197 5.03823663 -75.72591492 5.02126488 -83 5 C-83 4.67 -83 4.34 -83 4 C-114.35 3.67 -145.7 3.34 -178 3 C-178 2.67 -178 2.34 -178 2 C-119.26 2 -60.52 2 0 2 C0 1.34 0 0.68 0 0 Z " fill="#7B81E8" transform="translate(881,790)"/>
<path d="M0 0 C0.99 0.33 1.98 0.66 3 1 C5.07957034 1.1150037 7.16256821 1.17092847 9.24516296 1.19618225 C10.55348083 1.21438522 11.86179871 1.2325882 13.20976257 1.25134277 C14.66287138 1.26669039 16.11598116 1.28194609 17.5690918 1.29711914 C19.09661379 1.316558 20.62413045 1.33641994 22.15164185 1.35667419 C26.30211366 1.41050494 30.45263546 1.45840059 34.60319114 1.50525212 C38.93942719 1.55520204 43.27559377 1.61058069 47.61177063 1.66539001 C55.82458975 1.76837182 64.03745984 1.86645257 72.25035936 1.96278423 C81.59975407 2.07268399 90.9490791 2.18802965 100.29840219 2.30383885 C119.53219675 2.54196374 138.76606838 2.77322984 158 3 C158 3.33 158 3.66 158 4 C105.53 4 53.06 4 -1 4 C-1 1 -1 1 0 0 Z " fill="#6488DA" transform="translate(574,757)"/>
<path d="M0 0 C18.99833727 -0.19728284 37.96734223 -0.30924465 56.9375 0.875 C58.22390381 0.95347168 59.51030762 1.03194336 60.83569336 1.11279297 C67.49340666 1.56394321 74.1260851 2.17611016 80.75390625 2.9453125 C81.43380112 3.01950409 82.11369598 3.09369568 82.81419373 3.1701355 C86.25359898 3.59345111 88.05472908 4.03648605 91 6 C84.33813614 6.227109 77.92301724 5.95047993 71.3125 5.0625 C47.71209529 1.90872145 22.70564417 1.67346464 -1 4 C-2.01094727 4.09684082 -3.02189453 4.19368164 -4.06347656 4.29345703 C-27.8360649 5.94810031 -27.8360649 5.94810031 -51 11 C-51.66 10.34 -52.32 9.68 -53 9 C-35.49802809 5.00197969 -17.81633774 2.99527585 0 1 C0 0.67 0 0.34 0 0 Z " fill="#4EB2CA" transform="translate(265,248)"/>
<path d="M0 0 C0.99 0.495 0.99 0.495 2 1 C-6.99942624 7.16324343 -16.15655743 12.96679442 -25.53125 18.54272461 C-32.6480416 22.77675664 -39.67805229 27.13358913 -46.68554688 31.54541016 C-49.37620463 33.23643746 -52.07065068 34.92132926 -54.765625 36.60546875 C-55.78599854 37.24315186 -56.80637207 37.88083496 -57.85766602 38.5378418 C-59.94079043 39.83860094 -62.02460473 41.13825594 -64.10913086 42.43676758 C-68.75585599 45.33369231 -73.39249409 48.24154017 -77.98828125 51.21875 C-79.09719727 51.9312793 -79.09719727 51.9312793 -80.22851562 52.65820312 C-81.58037723 53.52861449 -82.9271031 54.40707478 -84.26757812 55.29492188 C-85.79746418 56.27518841 -87.39441976 57.14936146 -89 58 C-89.99 57.67 -90.98 57.34 -92 57 C-89.40910296 54.98292579 -86.83570429 53.28848601 -83.9375 51.75 C-80.53977935 49.89884057 -77.26323424 47.9287334 -74.01171875 45.83203125 C-66.57299954 41.07060297 -59.0325083 36.47766547 -51.49609375 31.87304688 C-46.63364202 28.89200315 -41.79727638 25.89956211 -37.0703125 22.70703125 C-32.92905774 19.91076306 -28.62439455 17.58927052 -24.1875 15.296875 C-21.86897232 14.18903879 -21.86897232 14.18903879 -21 12 C-18.67328135 10.98470459 -16.3396553 9.98511802 -14 9 C-13.34 8.34 -12.68 7.68 -12 7 C-10.02331206 5.73368429 -8.01959111 4.50920483 -6 3.3125 C-4.9275 2.66925781 -3.855 2.02601563 -2.75 1.36328125 C-1.8425 0.91339844 -0.935 0.46351563 0 0 Z " fill="#6493D9" transform="translate(585,540)"/>
<path d="M0 0 C0 0.66 0 1.32 0 2 C-1.51968384 2.12060791 -1.51968384 2.12060791 -3.07006836 2.24365234 C-6.86698765 2.5466863 -10.66318438 2.85808377 -14.45922852 3.171875 C-16.09511376 3.30595603 -17.73118097 3.4378374 -19.36743164 3.56738281 C-30.77841493 4.40806501 -30.77841493 4.40806501 -41.99780273 6.54052734 C-45.96182846 7.45020865 -50.01974176 7.74236501 -54.0625 8.125 C-54.92810547 8.21136719 -55.79371094 8.29773438 -56.68554688 8.38671875 C-58.78988844 8.59599029 -60.89488124 8.79869668 -63 9 C-59.92237159 6.94824773 -58.32094745 6.54109526 -54.74609375 5.96484375 C-53.72708984 5.79533203 -52.70808594 5.62582031 -51.65820312 5.45117188 C-50.59537109 5.28166016 -49.53253906 5.11214844 -48.4375 4.9375 C-46.33158068 4.59520858 -44.22608657 4.25028746 -42.12109375 3.90234375 C-41.1870874 3.75273193 -40.25308105 3.60312012 -39.29077148 3.44897461 C-36.98226511 3.10231407 -36.98226511 3.10231407 -35 2 C-33.1493074 1.7774634 -31.29213073 1.60776303 -29.43359375 1.46484375 C-28.30759766 1.37783203 -27.18160156 1.29082031 -26.02148438 1.20117188 C-24.24741211 1.0706543 -24.24741211 1.0706543 -22.4375 0.9375 C-21.28185547 0.84662109 -20.12621094 0.75574219 -18.93554688 0.66210938 C-12.60285906 0.18383142 -6.3502416 -0.10165808 0 0 Z " fill="#7185E0" transform="translate(735,678)"/>
<path d="M0 0 C-2.5125598 1.67503986 -4.04920819 2.44700701 -6.8359375 3.296875 C-7.57070312 3.5340625 -8.30546875 3.77125 -9.0625 4.015625 C-10.59260903 4.501538 -12.12650196 4.97570707 -13.6640625 5.4375 C-19.14163361 7.23782058 -21.74971523 9.2061437 -25 14 C-25.92547185 16.77641555 -26.27208142 18.99289564 -26.53515625 21.88671875 C-26.62216797 22.82451172 -26.70917969 23.76230469 -26.79882812 24.72851562 C-26.88583984 25.70498047 -26.97285156 26.68144531 -27.0625 27.6875 C-27.15337891 28.67556641 -27.24425781 29.66363281 -27.33789062 30.68164062 C-27.56177679 33.12082148 -27.78235239 35.56025587 -28 38 C-28.33 38 -28.66 38 -29 38 C-29.08797281 34.81267746 -29.14071341 31.62567212 -29.1875 28.4375 C-29.21263672 27.54224609 -29.23777344 26.64699219 -29.26367188 25.72460938 C-29.34116297 18.67291929 -28.34715422 13.96845975 -23.875 8.3125 C-17.40538623 3.10868023 -8.3642179 -0.5069223 0 0 Z " fill="#4EB7CA" transform="translate(211,258)"/>
<path d="M0 0 C0.33 0.66 0.66 1.32 1 2 C1.70769531 1.95230469 2.41539062 1.90460938 3.14453125 1.85546875 C6.47554335 2.02406991 8.65537965 2.94015181 11.6875 4.3125 C17.0369706 6.64585025 22.37293245 8.46874047 28 10 C28 10.66 28 11.32 28 12 C29.051875 12.1546875 29.051875 12.1546875 30.125 12.3125 C33.39137647 13.09359003 36.0471852 14.42058743 39 16 C35.54031852 17.21783143 33.83918501 16.81798995 30.54296875 15.3046875 C29.68413086 14.92062744 28.82529297 14.53656738 27.94042969 14.14086914 C26.57772949 13.51426392 26.57772949 13.51426392 25.1875 12.875 C17.43939529 9.41223862 9.76233195 6.42498984 1.640625 3.97265625 C-1 3 -1 3 -2 1 C-1.34 0.67 -0.68 0.34 0 0 Z " fill="#53ACD1" transform="translate(392,294)"/>
<path d="M0 0 C4.60411053 1.64496376 8.63179155 4.00751689 12.8125 6.5 C13.54718506 6.93489746 14.28187012 7.36979492 15.03881836 7.81787109 C22.77187818 12.41795723 30.39623287 17.19008001 38 22 C37.01 22.33 36.02 22.66 35 23 C32.14453125 21.5234375 32.14453125 21.5234375 28.8125 19.375 C28.23242188 19.00616699 27.65234375 18.63733398 27.0546875 18.25732422 C25.36387047 17.18079344 23.68174601 16.09064711 22 15 C16.78107653 11.58303172 16.78107653 11.58303172 11.1875 8.875 C8.76610584 7.90644233 7.7907375 6.862367 6 5 C4.948125 4.29875 3.89625 3.5975 2.8125 2.875 C1.884375 2.25625 0.95625 1.6375 0 1 C0 0.67 0 0.34 0 0 Z " fill="#688DDD" transform="translate(543,479)"/>
<path d="M0 0 C-0.33 0.66 -0.66 1.32 -1 2 C-6.7491065 3.08473707 -12.35219199 3.02710308 -18.1875 2.96875 C-21.5219041 3.00579893 -24.70250182 3.5203639 -28 4 C-31.66835326 4.08496186 -35.33137815 4.05970632 -39 4 C-38.67 3.34 -38.34 2.68 -38 2 C-35.58251953 1.58935547 -35.58251953 1.58935547 -32.3828125 1.3671875 C-30.63484375 1.24150391 -30.63484375 1.24150391 -28.8515625 1.11328125 C-27.00691406 0.99533203 -27.00691406 0.99533203 -25.125 0.875 C-23.93390625 0.78863281 -22.7428125 0.70226562 -21.515625 0.61328125 C-14.33223304 0.11814592 -7.19961071 -0.1159743 0 0 Z " fill="#4DB9CD" transform="translate(257,678)"/>
<path d="M0 0 C4.41718056 0.10984901 8.8335071 0.24048753 13.25 0.375 C14.50425781 0.4059375 15.75851562 0.436875 17.05078125 0.46875 C18.25605469 0.50742187 19.46132813 0.54609375 20.703125 0.5859375 C21.81333008 0.6173584 22.92353516 0.6487793 24.06738281 0.68115234 C27 1 27 1 31 3 C20.77 3 10.54 3 0 3 C0 2.01 0 1.02 0 0 Z " fill="#7680E3" transform="translate(769,678)"/>
<path d="M0 0 C0 0.33 0 0.66 0 1 C-1.07121094 1.12117187 -2.14242187 1.24234375 -3.24609375 1.3671875 C-4.64328752 1.53597601 -6.04041991 1.70527313 -7.4375 1.875 C-8.14455078 1.95363281 -8.85160156 2.03226563 -9.58007812 2.11328125 C-11.39673432 2.33927676 -13.20062522 2.66300727 -15 3 C-15.33 3.66 -15.66 4.32 -16 5 C-16.66 4.67 -17.32 4.34 -18 4 C-19.70702735 3.93003986 -21.41668003 3.91559846 -23.125 3.9375 C-24.03507813 3.94652344 -24.94515625 3.95554687 -25.8828125 3.96484375 C-26.93082031 3.98224609 -26.93082031 3.98224609 -28 4 C-28 3.34 -28 2.68 -28 2 C-18.5005349 0.38306977 -9.63225483 -0.26349633 0 0 Z " fill="#7485E3" transform="translate(736,711)"/>
<path d="M0 0 C0.845625 0.5775 1.69125 1.155 2.5625 1.75 C4.88316601 3.30627602 7.24066888 4.71413987 9.6875 6.0625 C13 8 13 8 14.3203125 9.421875 C16.67066715 11.63011518 19.29237691 12.78663399 22.1875 14.1875 C23.27417969 14.71730469 24.36085938 15.24710938 25.48046875 15.79296875 C26.72763672 16.39044922 26.72763672 16.39044922 28 17 C27.34 17.33 26.68 17.66 26 18 C23.41684347 16.94078512 20.98359029 15.82299005 18.5 14.5625 C17.42492187 14.02085205 17.42492187 14.02085205 16.328125 13.46826172 C10.3641947 10.36964596 4.72578817 6.83938884 0 2 C0 1.34 0 0.68 0 0 Z " fill="#579FD0" transform="translate(460,795)"/>
<path d="M0 0 C4.19960604 0.09374801 8.39866312 0.19988805 12.59765625 0.31738281 C14.02530398 0.35560024 15.45304563 0.39046572 16.88085938 0.421875 C18.93653868 0.46768401 20.99157554 0.5256498 23.046875 0.5859375 C24.28276367 0.6173584 25.51865234 0.6487793 26.79199219 0.68115234 C29.76678017 0.97682001 31.49349184 1.44027331 34 3 C28.07153559 4.44398275 22.4325709 3.70602009 16.4375 3.125 C15.40947266 3.03347656 14.38144531 2.94195313 13.32226562 2.84765625 C8.81455028 2.4328179 4.43085637 1.94893467 0 1 C0 0.67 0 0.34 0 0 Z " fill="#787FE4" transform="translate(775,711)"/>
<path d="M0 0 C5.83028038 0.54973427 10.58290168 2.2453859 15.9375 4.5625 C16.71673828 4.89185547 17.49597656 5.22121094 18.29882812 5.56054688 C20.20235303 6.36633349 22.10163025 7.18214217 24 8 C24 8.66 24 9.32 24 10 C17.544941 7.94186524 11.26957101 5.56388086 5 3 C3.33381523 2.33212985 1.66727759 1.66513733 0 1 C0 0.67 0 0.34 0 0 Z " fill="#54ADD1" transform="translate(403,700)"/>
<path d="M0 0 C0.4125 0.40992188 0.825 0.81984375 1.25 1.2421875 C6.93958119 6.55076995 11.79581727 8.0706495 19.5 8.125 C20.655 8.08375 21.81 8.0425 23 8 C22.67 8.66 22.34 9.32 22 10 C16.08275218 11.60258795 11.48445239 10.69087365 6 8 C2.83999344 5.3666612 1.2978744 3.89362319 0 0 Z " fill="#57A5D2" transform="translate(428,615)"/>
<path d="M0 0 C0 0.66 0 1.32 0 2 C-1.7634375 2.2475 -1.7634375 2.2475 -3.5625 2.5 C-9.10800466 3.83958905 -11.6511211 7.65550845 -15 12 C-15.66 12.66 -16.32 13.32 -17 14 C-16.67943652 8.71070258 -13.71395797 5.48914212 -10 2 C-6.57445855 0.07835479 -3.89725029 -0.22270002 0 0 Z " fill="#58A5D2" transform="translate(444,421)"/>
<path d="M0 0 C0.66 0.33 1.32 0.66 2 1 C-11.05750799 11.78314696 -11.05750799 11.78314696 -16 14 C-16.66 13.67 -17.32 13.34 -18 13 C-12.1083382 8.50719645 -6.09061103 4.21849699 0 0 Z " fill="#6293D7" transform="translate(565,794)"/>
<path d="M0 0 C4.875 4.75 4.875 4.75 6 7 C6.99 7.33 7.98 7.66 9 8 C9 8.66 9 9.32 9 10 C10.134375 10.12375 11.26875 10.2475 12.4375 10.375 C13.613125 10.58125 14.78875 10.7875 16 11 C16.33 11.66 16.66 12.32 17 13 C11.04613565 12.79109248 7.77956124 11.80984349 3.41015625 7.69921875 C1.44610313 5.33256195 0.63894765 2.98175572 0 0 Z " fill="#4CB9CD" transform="translate(183,704)"/>
<path d="M0 0 C0 0.66 0 1.32 0 2 C-2.76317623 3.37021794 -5.53658478 4.71830176 -8.3125 6.0625 C-9.49102539 6.64741211 -9.49102539 6.64741211 -10.69335938 7.24414062 C-11.45068359 7.60830078 -12.20800781 7.97246094 -12.98828125 8.34765625 C-13.68477783 8.68804932 -14.38127441 9.02844238 -15.09887695 9.37915039 C-17 10 -17 10 -20 9 C-4.06557377 0 -4.06557377 0 0 0 Z " fill="#6593DC" transform="translate(601,744)"/>
<path d="M0 0 C0.33 0 0.66 0 1 0 C1 7.26 1 14.52 1 22 C0.67 22 0.34 22 0 22 C0 14.74 0 7.48 0 0 Z " fill="#50B6CA" transform="translate(128,465)"/>
<path d="M0 0 C0.99 0.33 1.98 0.66 3 1 C2.071875 1.763125 1.14375 2.52625 0.1875 3.3125 C-1.98276101 5.11848552 -4.05568065 6.9476629 -6 9 C-6.33 8.34 -6.66 7.68 -7 7 C-4.66666667 4.66666667 -2.33333333 2.33333333 0 0 Z " fill="#4FB7CA" transform="translate(140,319)"/>
<path d="M0 0 C3.15330554 0.60694155 5.18888867 1.6416665 7.75 3.5625 C8.67039062 4.24505859 8.67039062 4.24505859 9.609375 4.94140625 C10.29773438 5.46541016 10.29773438 5.46541016 11 6 C10.01 6.495 10.01 6.495 9 7 C7.4972763 6.02501855 5.99788037 5.04490611 4.5 4.0625 C3.6646875 3.51722656 2.829375 2.97195313 1.96875 2.41015625 C1.3190625 1.94480469 0.669375 1.47945313 0 1 C0 0.67 0 0.34 0 0 Z " fill="#57A6D4" transform="translate(459,326)"/>
<path d="M0 0 C0 0.66 0 1.32 0 2 C-4.16138263 2.08159574 -7.9472484 1.98248524 -12 1 C-12 0.67 -12 0.34 -12 0 C-7.74433453 -1.16063604 -4.3164922 -0.76173392 0 0 Z " fill="#7C7FE9" transform="translate(832,445)"/>
<path d="M0 0 C0.33 0 0.66 0 1 0 C1 3.63 1 7.26 1 11 C0.67 11 0.34 11 0 11 C0 7.37 0 3.74 0 0 Z " fill="#51B6CB" transform="translate(128,497)"/>
<path d="M0 0 C0.33 0 0.66 0 1 0 C1 2.31 1 4.62 1 7 C0.67 7 0.34 7 0 7 C0 4.69 0 2.38 0 0 Z " fill="#4DAEC3" transform="translate(128,769)"/>
<path d="M0 0 C0.33 0 0.66 0 1 0 C1 2.31 1 4.62 1 7 C0.67 7 0.34 7 0 7 C0 4.69 0 2.38 0 0 Z " fill="#787ADA" transform="translate(895,753)"/>
<path d="M0 0 C0.33 0 0.66 0 1 0 C1 2.31 1 4.62 1 7 C0.67 7 0.34 7 0 7 C0 4.69 0 2.38 0 0 Z " fill="#50B6C9" transform="translate(128,557)"/>
<path d="M0 0 C0.33 0 0.66 0 1 0 C1 2.31 1 4.62 1 7 C0.67 7 0.34 7 0 7 C0 4.69 0 2.38 0 0 Z " fill="#4FB6CA" transform="translate(128,520)"/>
<path d="M0 0 C0.33 0 0.66 0 1 0 C1 1.98 1 3.96 1 6 C0.67 6 0.34 6 0 6 C0 4.02 0 2.04 0 0 Z " fill="#7A7DDD" transform="translate(895,712)"/>
<path d="M0 0 C0.33 0 0.66 0 1 0 C1 1.98 1 3.96 1 6 C0.67 6 0.34 6 0 6 C0 4.02 0 2.04 0 0 Z " fill="#51B7CA" transform="translate(128,369)"/>
<path d="M0 0 C1.98 0 3.96 0 6 0 C6 0.33 6 0.66 6 1 C4.02 1 2.04 1 0 1 C0 0.67 0 0.34 0 0 Z " fill="#7D8BEB" transform="translate(688,286)"/>
<path d="M0 0 C0.33 0 0.66 0 1 0 C1 1.65 1 3.3 1 5 C0.67 5 0.34 5 0 5 C0 3.35 0 1.7 0 0 Z " fill="#7A7CDC" transform="translate(895,746)"/>
<path d="M0 0 C0.33 0 0.66 0 1 0 C1 1.65 1 3.3 1 5 C0.67 5 0.34 5 0 5 C0 3.35 0 1.7 0 0 Z " fill="#7A7CDD" transform="translate(895,730)"/>
<path d="M0 0 C0.33 0 0.66 0 1 0 C1 1.65 1 3.3 1 5 C0.67 5 0.34 5 0 5 C0 3.35 0 1.7 0 0 Z " fill="#7B7CDF" transform="translate(895,706)"/>
<path d="M0 0 C0.33 0 0.66 0 1 0 C1 1.65 1 3.3 1 5 C0.67 5 0.34 5 0 5 C0 3.35 0 1.7 0 0 Z " fill="#7A7DDF" transform="translate(895,697)"/>
<path d="M0 0 C0.33 0 0.66 0 1 0 C1 1.65 1 3.3 1 5 C0.67 5 0.34 5 0 5 C0 3.35 0 1.7 0 0 Z " fill="#8384EF" transform="translate(844,667)"/>
<path d="M0 0 C0.33 0 0.66 0 1 0 C1 1.65 1 3.3 1 5 C0.67 5 0.34 5 0 5 C0 3.35 0 1.7 0 0 Z " fill="#51B7CB" transform="translate(128,655)"/>
<path d="M0 0 C0.33 0 0.66 0 1 0 C1 1.65 1 3.3 1 5 C0.67 5 0.34 5 0 5 C0 3.35 0 1.7 0 0 Z " fill="#4FB7CB" transform="translate(128,445)"/>
<path d="M0 0 C1.98 0.99 1.98 0.99 4 2 C2.68 1.67 1.36 1.34 0 1 C0 0.67 0 0.34 0 0 Z " fill="#7785DE" transform="translate(690,437)"/>
<path d="M0 0 C0.33 0 0.66 0 1 0 C1 1.65 1 3.3 1 5 C0.67 5 0.34 5 0 5 C0 3.35 0 1.7 0 0 Z " fill="#7789E3" transform="translate(656,387)"/>
<path d="M0 0 C0.33 0 0.66 0 1 0 C1 1.65 1 3.3 1 5 C0.67 5 0.34 5 0 5 C0 3.35 0 1.7 0 0 Z " fill="#52B5C8" transform="translate(128,361)"/>
<path d="M0 0 C1.65 0 3.3 0 5 0 C5 0.33 5 0.66 5 1 C3.35 1 1.7 1 0 1 C0 0.67 0 0.34 0 0 Z " fill="#7787DE" transform="translate(690,248)"/>
<path d="M0 0 C4 1 4 1 4 1 Z " fill="#5CB7DC" transform="translate(439,757)"/>
<path d="M0 0 C1 4 1 4 1 4 Z " fill="#51B7CC" transform="translate(128,704)"/>
<path d="M0 0 C1 4 1 4 1 4 Z " fill="#7A7DDF" transform="translate(895,616)"/>
<path d="M0 0 C1 4 1 4 1 4 Z " fill="#50B5C9" transform="translate(128,592)"/>
<path d="M0 0 C1 4 1 4 1 4 Z " fill="#51B5C9" transform="translate(128,552)"/>
<path d="M0 0 C1 4 1 4 1 4 Z " fill="#4FB4C9" transform="translate(128,536)"/>
<path d="M0 0 C1 4 1 4 1 4 Z " fill="#52B7CA" transform="translate(128,456)"/>
<path d="M0 0 C1 4 1 4 1 4 Z " fill="#50B6C9" transform="translate(128,424)"/>
<path d="M0 0 C1 4 1 4 1 4 Z " fill="#50B6CA" transform="translate(128,419)"/>
<path d="M0 0 C1 4 1 4 1 4 Z " fill="#51B6C9" transform="translate(128,376)"/>
<path d="M0 0 C1 4 1 4 1 4 Z " fill="#51C2D2" transform="translate(180,308)"/>
<path d="" fill="#7678D8" transform="translate(0,0)"/>
<path d="" fill="#787BDB" transform="translate(0,0)"/>
<path d="" fill="#7A7EDE" transform="translate(0,0)"/>
<path d="M0 0 C3 1 3 1 3 1 Z " fill="#788FE8" transform="translate(687,719)"/>
<path d="" fill="#52B7CC" transform="translate(0,0)"/>
<path d="M0 0 C3 1 3 1 3 1 Z " fill="#7195DF" transform="translate(624,696)"/>
<path d="" fill="#52B6CB" transform="translate(0,0)"/>
<path d="" fill="#52B7CB" transform="translate(0,0)"/>
<path d="" fill="#52B8CB" transform="translate(0,0)"/>
<path d="" fill="#51B8CB" transform="translate(0,0)"/>
<path d="" fill="#7C7DE0" transform="translate(0,0)"/>
<path d="" fill="#51B6CB" transform="translate(0,0)"/>
<path d="" fill="#51B6CA" transform="translate(0,0)"/>
<path d="" fill="#50B6C9" transform="translate(0,0)"/>
<path d="" fill="#52B6CA" transform="translate(0,0)"/>
<path d="" fill="#51B7CB" transform="translate(0,0)"/>
<path d="" fill="#7B7FDF" transform="translate(0,0)"/>
<path d="" fill="#51C5D4" transform="translate(0,0)"/>
<path d="" fill="#51B6CA" transform="translate(0,0)"/>
<path d="" fill="#50C7D5" transform="translate(0,0)"/>
<path d="" fill="#8386EE" transform="translate(0,0)"/>
<path d="" fill="#50B6C9" transform="translate(0,0)"/>
<path d="" fill="#8384ED" transform="translate(0,0)"/>
<path d="" fill="#50B4C8" transform="translate(0,0)"/>
<path d="" fill="#50B6C9" transform="translate(0,0)"/>
<path d="" fill="#51B5C8" transform="translate(0,0)"/>
<path d="" fill="#51B5C5" transform="translate(0,0)"/>
<path d="" fill="#51B2C5" transform="translate(0,0)"/>
<path d="" fill="#53C3D4" transform="translate(0,0)"/>
<path d="M0 0 C3 1 3 1 3 1 Z " fill="#52BFD2" transform="translate(251,286)"/>
<path d="M0 0 C3 1 3 1 3 1 Z " fill="#7E8AEB" transform="translate(697,285)"/>
<path d="M0 0 C3 1 3 1 3 1 Z " fill="#7887DF" transform="translate(696,248)"/>
<path d="M0 0 C3 1 3 1 3 1 Z " fill="#50B7C9" transform="translate(257,248)"/>
<path d="" fill="#5BA7D3" transform="translate(0,0)"/>
<path d="" fill="#7676D2" transform="translate(0,0)"/>
<path d="" fill="#4FB2C6" transform="translate(0,0)"/>
<path d="" fill="#50B4C9" transform="translate(0,0)"/>
<path d="M0 0 C2 1 2 1 2 1 Z " fill="#7599E5" transform="translate(628,735)"/>
<path d="" fill="#4FB6CA" transform="translate(0,0)"/>
<path d="" fill="#51B6CC" transform="translate(0,0)"/>
<path d="M0 0 C2 1 2 1 2 1 Z " fill="#8487EF" transform="translate(827,718)"/>
<path d="M0 0 C2 1 2 1 2 1 Z " fill="#8589EF" transform="translate(824,718)"/>
<path d="M0 0 C2 1 2 1 2 1 Z " fill="#54BED6" transform="translate(332,718)"/>
<path d="M0 0 C2 1 2 1 2 1 Z " fill="#8488ED" transform="translate(815,717)"/>
<path d="M0 0 C2 1 2 1 2 1 Z " fill="#7A8FEA" transform="translate(698,717)"/>
<path d="M0 0 C2 1 2 1 2 1 Z " fill="#7C8FEB" transform="translate(708,716)"/>
<path d="M0 0 C2 1 2 1 2 1 Z " fill="#709EDF" transform="translate(584,712)"/>
<path d="" fill="#50B8CC" transform="translate(0,0)"/>
<path d="" fill="#7B7EE0" transform="translate(0,0)"/>
<path d="M0 0 C2 1 2 1 2 1 Z " fill="#7491E0" transform="translate(640,691)"/>
<path d="M0 0 C2 1 2 1 2 1 Z " fill="#7390DE" transform="translate(653,688)"/>
<path d="" fill="#7C7EDF" transform="translate(0,0)"/>
<path d="M0 0 C2 1 2 1 2 1 Z " fill="#768BE0" transform="translate(693,680)"/>
<path d="" fill="#51B8CC" transform="translate(0,0)"/>
<path d="" fill="#7A7EE0" transform="translate(0,0)"/>
<path d="" fill="#52B5C9" transform="translate(0,0)"/>
<path d="" fill="#51B6CA" transform="translate(0,0)"/>
<path d="" fill="#7B7DDF" transform="translate(0,0)"/>
<path d="" fill="#7B7DE0" transform="translate(0,0)"/>
<path d="" fill="#7B7DDF" transform="translate(0,0)"/>
<path d="" fill="#8385EE" transform="translate(0,0)"/>
<path d="" fill="#4FB6CB" transform="translate(0,0)"/>
<path d="" fill="#52B6CA" transform="translate(0,0)"/>
<path d="" fill="#51B7CB" transform="translate(0,0)"/>
<path d="" fill="#7B7DDE" transform="translate(0,0)"/>
<path d="" fill="#7A7DDD" transform="translate(0,0)"/>
<path d="M0 0 C2 1 2 1 2 1 Z " fill="#6D8BDB" transform="translate(584,543)"/>
<path d="" fill="#4FB5CA" transform="translate(0,0)"/>
<path d="" fill="#4FB5CA" transform="translate(0,0)"/>
<path d="" fill="#8484EF" transform="translate(0,0)"/>
<path d="" fill="#51B5CB" transform="translate(0,0)"/>
<path d="" fill="#8584EF" transform="translate(0,0)"/>
<path d="" fill="#7A7DDF" transform="translate(0,0)"/>
<path d="" fill="#50B7CB" transform="translate(0,0)"/>
<path d="" fill="#51B7CB" transform="translate(0,0)"/>
<path d="" fill="#8484EF" transform="translate(0,0)"/>
<path d="" fill="#52C9D8" transform="translate(0,0)"/>
<path d="" fill="#7A7EE0" transform="translate(0,0)"/>
<path d="" fill="#52B7CB" transform="translate(0,0)"/>
<path d="" fill="#50B7CB" transform="translate(0,0)"/>
<path d="" fill="#51B7CB" transform="translate(0,0)"/>
<path d="" fill="#7B7DE0" transform="translate(0,0)"/>
<path d="" fill="#7C7EE0" transform="translate(0,0)"/>
<path d="" fill="#7889E2" transform="translate(0,0)"/>
<path d="" fill="#51B6C8" transform="translate(0,0)"/>
<path d="" fill="#7889E3" transform="translate(0,0)"/>
<path d="" fill="#52B3C8" transform="translate(0,0)"/>
<path d="M0 0 C2 1 2 1 2 1 Z " fill="#58B2D4" transform="translate(401,301)"/>
<path d="" fill="#797CE0" transform="translate(0,0)"/>
<path d="" fill="#8386F0" transform="translate(0,0)"/>
<path d="M0 0 C2 1 2 1 2 1 Z " fill="#788DE8" transform="translate(648,294)"/>
<path d="M0 0 C2 1 2 1 2 1 Z " fill="#788BE6" transform="translate(650,293)"/>
<path d="M0 0 C2 1 2 1 2 1 Z " fill="#7D8BEA" transform="translate(684,287)"/>
<path d="M0 0 C2 1 2 1 2 1 Z " fill="#7B8BE9" transform="translate(680,287)"/>
<path d="M0 0 C2 1 2 1 2 1 Z " fill="#55C0D2" transform="translate(245,287)"/>
<path d="M0 0 C2 1 2 1 2 1 Z " fill="#56B9D0" transform="translate(322,285)"/>
<path d="M0 0 C2 1 2 1 2 1 Z " fill="#6C93D9" transform="translate(576,280)"/>
<path d="M0 0 C2 1 2 1 2 1 Z " fill="#6F8ED7" transform="translate(616,264)"/>
<path d="" fill="#030509" transform="translate(0,0)"/>
<path d="" fill="#5D9DD0" transform="translate(0,0)"/>
<path d="" fill="#5C9ECC" transform="translate(0,0)"/>
<path d="" fill="#6598D5" transform="translate(0,0)"/>
<path d="" fill="#49A3B9" transform="translate(0,0)"/>
<path d="" fill="#7574CF" transform="translate(0,0)"/>
<path d="" fill="#7577D4" transform="translate(0,0)"/>
<path d="" fill="#7778D8" transform="translate(0,0)"/>
<path d="" fill="#50B3C7" transform="translate(0,0)"/>
<path d="" fill="#70A1E4" transform="translate(0,0)"/>
<path d="" fill="#6DA0E3" transform="translate(0,0)"/>
<path d="" fill="#6E9FE2" transform="translate(0,0)"/>
<path d="" fill="#5CBADB" transform="translate(0,0)"/>
<path d="" fill="#52B3C8" transform="translate(0,0)"/>
<path d="" fill="#5FB9DE" transform="translate(0,0)"/>
<path d="" fill="#51B5CA" transform="translate(0,0)"/>
<path d="" fill="#59B8DE" transform="translate(0,0)"/>
<path d="" fill="#5CBADB" transform="translate(0,0)"/>
<path d="" fill="#51B5CB" transform="translate(0,0)"/>
<path d="" fill="#709BE4" transform="translate(0,0)"/>
<path d="" fill="#797DDB" transform="translate(0,0)"/>
<path d="" fill="#7199E7" transform="translate(0,0)"/>
<path d="" fill="#5FB2DE" transform="translate(0,0)"/>
<path d="" fill="#5DB2DD" transform="translate(0,0)"/>
<path d="" fill="#7497E6" transform="translate(0,0)"/>
<path d="" fill="#58BCD9" transform="translate(0,0)"/>
<path d="" fill="#69A4DE" transform="translate(0,0)"/>
<path d="" fill="#5EB2DE" transform="translate(0,0)"/>
<path d="" fill="#7694E6" transform="translate(0,0)"/>
<path d="" fill="#5ABBD9" transform="translate(0,0)"/>
<path d="" fill="#7693E7" transform="translate(0,0)"/>
<path d="" fill="#7B7EDE" transform="translate(0,0)"/>
<path d="" fill="#51B7CB" transform="translate(0,0)"/>
<path d="" fill="#7793E7" transform="translate(0,0)"/>
<path d="" fill="#7A93E9" transform="translate(0,0)"/>
<path d="" fill="#51B9CD" transform="translate(0,0)"/>
<path d="" fill="#5CB4DC" transform="translate(0,0)"/>
<path d="" fill="#50B6CB" transform="translate(0,0)"/>
<path d="" fill="#6B9FE0" transform="translate(0,0)"/>
<path d="" fill="#8388EC" transform="translate(0,0)"/>
<path d="" fill="#7A8EEA" transform="translate(0,0)"/>
<path d="" fill="#7C90EB" transform="translate(0,0)"/>
<path d="" fill="#54C7D8" transform="translate(0,0)"/>
<path d="" fill="#55C7D7" transform="translate(0,0)"/>
<path d="" fill="#8288ED" transform="translate(0,0)"/>
<path d="" fill="#50C5D5" transform="translate(0,0)"/>
<path d="" fill="#54C5D9" transform="translate(0,0)"/>
<path d="" fill="#8689EE" transform="translate(0,0)"/>
<path d="" fill="#7C91EB" transform="translate(0,0)"/>
<path d="" fill="#848AEE" transform="translate(0,0)"/>
<path d="" fill="#7C8DE8" transform="translate(0,0)"/>
<path d="" fill="#7D8DE9" transform="translate(0,0)"/>
<path d="" fill="#52C1D4" transform="translate(0,0)"/>
<path d="" fill="#56C2D7" transform="translate(0,0)"/>
<path d="" fill="#55C7D6" transform="translate(0,0)"/>
<path d="" fill="#52BBCD" transform="translate(0,0)"/>
<path d="" fill="#8289EC" transform="translate(0,0)"/>
<path d="" fill="#7D8EE9" transform="translate(0,0)"/>
<path d="" fill="#7E8DE9" transform="translate(0,0)"/>
<path d="" fill="#7D8CE8" transform="translate(0,0)"/>
<path d="" fill="#6D9DDF" transform="translate(0,0)"/>
<path d="" fill="#5CB0D5" transform="translate(0,0)"/>
<path d="" fill="#6D97DF" transform="translate(0,0)"/>
<path d="" fill="#51B9CD" transform="translate(0,0)"/>
<path d="" fill="#52C5D7" transform="translate(0,0)"/>
<path d="" fill="#7093DE" transform="translate(0,0)"/>
<path d="" fill="#58B2D0" transform="translate(0,0)"/>
<path d="" fill="#8386EF" transform="translate(0,0)"/>
<path d="" fill="#7A7CE0" transform="translate(0,0)"/>
<path d="" fill="#8485F0" transform="translate(0,0)"/>
<path d="" fill="#748CE0" transform="translate(0,0)"/>
<path d="" fill="#768EDF" transform="translate(0,0)"/>
<path d="" fill="#748EE1" transform="translate(0,0)"/>
<path d="" fill="#7989E3" transform="translate(0,0)"/>
<path d="" fill="#7F8AE9" transform="translate(0,0)"/>
<path d="" fill="#8385F0" transform="translate(0,0)"/>
<path d="" fill="#56C6D8" transform="translate(0,0)"/>
<path d="" fill="#51B8CB" transform="translate(0,0)"/>
<path d="" fill="#52C8D7" transform="translate(0,0)"/>
<path d="" fill="#8386EF" transform="translate(0,0)"/>
<path d="" fill="#7B7FE2" transform="translate(0,0)"/>
<path d="" fill="#8284EE" transform="translate(0,0)"/>
<path d="" fill="#52C6D7" transform="translate(0,0)"/>
<path d="" fill="#7C7FE2" transform="translate(0,0)"/>
<path d="" fill="#53C8D5" transform="translate(0,0)"/>
<path d="" fill="#8384F1" transform="translate(0,0)"/>
<path d="" fill="#8485F0" transform="translate(0,0)"/>
<path d="" fill="#52C8D6" transform="translate(0,0)"/>
<path d="" fill="#51B8CC" transform="translate(0,0)"/>
<path d="" fill="#8483F0" transform="translate(0,0)"/>
<path d="" fill="#51C7D7" transform="translate(0,0)"/>
<path d="" fill="#51BBCD" transform="translate(0,0)"/>
<path d="" fill="#7D7EE0" transform="translate(0,0)"/>
<path d="" fill="#8587F0" transform="translate(0,0)"/>
<path d="" fill="#51B8CC" transform="translate(0,0)"/>
<path d="" fill="#7C7EE1" transform="translate(0,0)"/>
<path d="" fill="#8485F0" transform="translate(0,0)"/>
<path d="" fill="#52C7D5" transform="translate(0,0)"/>
<path d="" fill="#7B7DE0" transform="translate(0,0)"/>
<path d="" fill="#7B7EDF" transform="translate(0,0)"/>
<path d="" fill="#8483EF" transform="translate(0,0)"/>
<path d="" fill="#8384F0" transform="translate(0,0)"/>
<path d="" fill="#7B7EE0" transform="translate(0,0)"/>
<path d="" fill="#8485F0" transform="translate(0,0)"/>
<path d="" fill="#8485EF" transform="translate(0,0)"/>
<path d="" fill="#8484F0" transform="translate(0,0)"/>
<path d="" fill="#53C8D9" transform="translate(0,0)"/>
<path d="" fill="#51C5D5" transform="translate(0,0)"/>
<path d="" fill="#7A7EE0" transform="translate(0,0)"/>
<path d="" fill="#8584F0" transform="translate(0,0)"/>
<path d="" fill="#51B6CA" transform="translate(0,0)"/>
<path d="" fill="#51C7D6" transform="translate(0,0)"/>
<path d="" fill="#8483F0" transform="translate(0,0)"/>
<path d="" fill="#8484F0" transform="translate(0,0)"/>
<path d="" fill="#5FACDB" transform="translate(0,0)"/>
<path d="" fill="#53C8D8" transform="translate(0,0)"/>
<path d="" fill="#7C7DE0" transform="translate(0,0)"/>
<path d="" fill="#52B9CB" transform="translate(0,0)"/>
<path d="" fill="#8385EE" transform="translate(0,0)"/>
<path d="" fill="#50B7CB" transform="translate(0,0)"/>
<path d="" fill="#60AADE" transform="translate(0,0)"/>
<path d="" fill="#7B7EDE" transform="translate(0,0)"/>
<path d="" fill="#52B7CD" transform="translate(0,0)"/>
<path d="" fill="#8485EE" transform="translate(0,0)"/>
<path d="" fill="#52B8CC" transform="translate(0,0)"/>
<path d="" fill="#8485EF" transform="translate(0,0)"/>
<path d="" fill="#50B5CA" transform="translate(0,0)"/>
<path d="" fill="#60A5DC" transform="translate(0,0)"/>
<path d="" fill="#7A7DDF" transform="translate(0,0)"/>
<path d="" fill="#64A7DD" transform="translate(0,0)"/>
<path d="" fill="#7B7EDE" transform="translate(0,0)"/>
<path d="" fill="#65A8DD" transform="translate(0,0)"/>
<path d="" fill="#8383EE" transform="translate(0,0)"/>
<path d="" fill="#65A2DC" transform="translate(0,0)"/>
<path d="" fill="#7B7DDF" transform="translate(0,0)"/>
<path d="" fill="#8484EF" transform="translate(0,0)"/>
<path d="" fill="#8585F1" transform="translate(0,0)"/>
<path d="" fill="#7B7CE0" transform="translate(0,0)"/>
<path d="" fill="#7B7DE1" transform="translate(0,0)"/>
<path d="" fill="#8585EE" transform="translate(0,0)"/>
<path d="" fill="#8484EE" transform="translate(0,0)"/>
<path d="" fill="#53C7D9" transform="translate(0,0)"/>
<path d="" fill="#52B6CB" transform="translate(0,0)"/>
<path d="" fill="#8582ED" transform="translate(0,0)"/>
<path d="" fill="#8185E1" transform="translate(0,0)"/>
<path d="" fill="#6998DC" transform="translate(0,0)"/>
<path d="" fill="#7A7DDF" transform="translate(0,0)"/>
<path d="" fill="#8484EE" transform="translate(0,0)"/>
<path d="" fill="#53C8D7" transform="translate(0,0)"/>
<path d="" fill="#51B5C9" transform="translate(0,0)"/>
<path d="" fill="#6F97DC" transform="translate(0,0)"/>
<path d="" fill="#6F93DC" transform="translate(0,0)"/>
<path d="" fill="#8384F0" transform="translate(0,0)"/>
<path d="" fill="#8484EF" transform="translate(0,0)"/>
<path d="" fill="#55C8D8" transform="translate(0,0)"/>
<path d="" fill="#7092DE" transform="translate(0,0)"/>
<path d="" fill="#7A7DDF" transform="translate(0,0)"/>
<path d="" fill="#50B6CA" transform="translate(0,0)"/>
<path d="" fill="#6F90DD" transform="translate(0,0)"/>
<path d="" fill="#51B6CB" transform="translate(0,0)"/>
<path d="" fill="#7B7EDF" transform="translate(0,0)"/>
<path d="" fill="#50C7D7" transform="translate(0,0)"/>
<path d="" fill="#8385F0" transform="translate(0,0)"/>
<path d="" fill="#53C7D5" transform="translate(0,0)"/>
<path d="" fill="#708AD8" transform="translate(0,0)"/>
<path d="" fill="#7C7EE0" transform="translate(0,0)"/>
<path d="" fill="#6F8CDA" transform="translate(0,0)"/>
<path d="" fill="#52C7D5" transform="translate(0,0)"/>
<path d="" fill="#7B7FDF" transform="translate(0,0)"/>
<path d="" fill="#8584F0" transform="translate(0,0)"/>
<path d="" fill="#7C7EE1" transform="translate(0,0)"/>
<path d="" fill="#8484EF" transform="translate(0,0)"/>
<path d="" fill="#7C7DDF" transform="translate(0,0)"/>
<path d="" fill="#8484EE" transform="translate(0,0)"/>
<path d="" fill="#7A7EDE" transform="translate(0,0)"/>
<path d="" fill="#8485F1" transform="translate(0,0)"/>
<path d="" fill="#7C7DDF" transform="translate(0,0)"/>
<path d="" fill="#8386ED" transform="translate(0,0)"/>
<path d="" fill="#6F8CD7" transform="translate(0,0)"/>
<path d="" fill="#8585EF" transform="translate(0,0)"/>
<path d="" fill="#52C6D4" transform="translate(0,0)"/>
<path d="" fill="#7A7DE1" transform="translate(0,0)"/>
<path d="" fill="#7C7FDF" transform="translate(0,0)"/>
<path d="" fill="#50B6CB" transform="translate(0,0)"/>
<path d="" fill="#7C7FE1" transform="translate(0,0)"/>
<path d="" fill="#8485EE" transform="translate(0,0)"/>
<path d="" fill="#8485ED" transform="translate(0,0)"/>
<path d="" fill="#6E96E0" transform="translate(0,0)"/>
<path d="" fill="#8387EE" transform="translate(0,0)"/>
<path d="" fill="#6896DE" transform="translate(0,0)"/>
<path d="" fill="#7B7EDF" transform="translate(0,0)"/>
<path d="" fill="#8386EF" transform="translate(0,0)"/>
<path d="" fill="#7B7FE1" transform="translate(0,0)"/>
<path d="" fill="#8384EE" transform="translate(0,0)"/>
<path d="" fill="#52C6D5" transform="translate(0,0)"/>
<path d="" fill="#50C6D5" transform="translate(0,0)"/>
<path d="" fill="#7B7FE0" transform="translate(0,0)"/>
<path d="" fill="#51C8D6" transform="translate(0,0)"/>
<path d="" fill="#7B7EDF" transform="translate(0,0)"/>
<path d="" fill="#52C7D5" transform="translate(0,0)"/>
<path d="" fill="#51C6D5" transform="translate(0,0)"/>
<path d="" fill="#7C7FE1" transform="translate(0,0)"/>
<path d="" fill="#8586EA" transform="translate(0,0)"/>
<path d="" fill="#7C7FE1" transform="translate(0,0)"/>
<path d="" fill="#8384EC" transform="translate(0,0)"/>
<path d="" fill="#61ACDE" transform="translate(0,0)"/>
<path d="" fill="#7A86E3" transform="translate(0,0)"/>
<path d="" fill="#7B86E3" transform="translate(0,0)"/>
<path d="" fill="#7786DF" transform="translate(0,0)"/>
<path d="" fill="#7C86E5" transform="translate(0,0)"/>
<path d="" fill="#7A85E0" transform="translate(0,0)"/>
<path d="" fill="#60ACDD" transform="translate(0,0)"/>
<path d="" fill="#51C7D5" transform="translate(0,0)"/>
<path d="" fill="#54CBD8" transform="translate(0,0)"/>
<path d="" fill="#7D7EE1" transform="translate(0,0)"/>
<path d="" fill="#8587EE" transform="translate(0,0)"/>
<path d="" fill="#7886DF" transform="translate(0,0)"/>
<path d="" fill="#5FACDA" transform="translate(0,0)"/>
<path d="" fill="#8185EC" transform="translate(0,0)"/>
<path d="" fill="#54C9D8" transform="translate(0,0)"/>
<path d="" fill="#8188EA" transform="translate(0,0)"/>
<path d="" fill="#7B7FDF" transform="translate(0,0)"/>
<path d="" fill="#51B4C9" transform="translate(0,0)"/>
<path d="" fill="#51B7CB" transform="translate(0,0)"/>
<path d="" fill="#51C6D5" transform="translate(0,0)"/>
<path d="" fill="#659EDB" transform="translate(0,0)"/>
<path d="" fill="#50C6D3" transform="translate(0,0)"/>
<path d="" fill="#7988E0" transform="translate(0,0)"/>
<path d="" fill="#51B7CA" transform="translate(0,0)"/>
<path d="" fill="#8185EB" transform="translate(0,0)"/>
<path d="" fill="#63A7DA" transform="translate(0,0)"/>
<path d="" fill="#7C7DE0" transform="translate(0,0)"/>
<path d="" fill="#6A9EDC" transform="translate(0,0)"/>
<path d="" fill="#52B7CB" transform="translate(0,0)"/>
<path d="" fill="#52B8CB" transform="translate(0,0)"/>
<path d="" fill="#4FB6CA" transform="translate(0,0)"/>
<path d="" fill="#51C8D7" transform="translate(0,0)"/>
<path d="" fill="#7B7DDE" transform="translate(0,0)"/>
<path d="" fill="#54C8D7" transform="translate(0,0)"/>
<path d="" fill="#8184EB" transform="translate(0,0)"/>
<path d="" fill="#7A8AE3" transform="translate(0,0)"/>
<path d="" fill="#52C8D5" transform="translate(0,0)"/>
<path d="" fill="#7A7DDD" transform="translate(0,0)"/>
<path d="" fill="#53C6D4" transform="translate(0,0)"/>
<path d="" fill="#8187E9" transform="translate(0,0)"/>
<path d="" fill="#798BE5" transform="translate(0,0)"/>
<path d="" fill="#8488EF" transform="translate(0,0)"/>
<path d="" fill="#788CE6" transform="translate(0,0)"/>
<path d="" fill="#8487EE" transform="translate(0,0)"/>
<path d="" fill="#5EAADA" transform="translate(0,0)"/>
<path d="" fill="#8389EF" transform="translate(0,0)"/>
<path d="" fill="#7F8AEC" transform="translate(0,0)"/>
<path d="" fill="#7F8AEA" transform="translate(0,0)"/>
<path d="" fill="#8288F2" transform="translate(0,0)"/>
<path d="" fill="#8081E7" transform="translate(0,0)"/>
<path d="" fill="#5AAFD9" transform="translate(0,0)"/>
<path d="" fill="#8081E6" transform="translate(0,0)"/>
<path d="" fill="#64A3DA" transform="translate(0,0)"/>
<path d="" fill="#5BB0D6" transform="translate(0,0)"/>
<path d="" fill="#7495E1" transform="translate(0,0)"/>
<path d="" fill="#7593E4" transform="translate(0,0)"/>
<path d="" fill="#7B7DE0" transform="translate(0,0)"/>
<path d="" fill="#51C1D2" transform="translate(0,0)"/>
<path d="" fill="#8387F0" transform="translate(0,0)"/>
<path d="" fill="#51C3D0" transform="translate(0,0)"/>
<path d="" fill="#57B3D4" transform="translate(0,0)"/>
<path d="" fill="#797DE0" transform="translate(0,0)"/>
<path d="" fill="#758FE5" transform="translate(0,0)"/>
<path d="" fill="#51C2CF" transform="translate(0,0)"/>
<path d="" fill="#768FE6" transform="translate(0,0)"/>
<path d="" fill="#798DE6" transform="translate(0,0)"/>
<path d="" fill="#51BFCE" transform="translate(0,0)"/>
<path d="" fill="#55C3D3" transform="translate(0,0)"/>
<path d="" fill="#7B8AE8" transform="translate(0,0)"/>
<path d="" fill="#788CE8" transform="translate(0,0)"/>
<path d="" fill="#53C3D2" transform="translate(0,0)"/>
<path d="" fill="#6899D9" transform="translate(0,0)"/>
<path d="" fill="#7A7CDC" transform="translate(0,0)"/>
<path d="" fill="#56B6D1" transform="translate(0,0)"/>
<path d="" fill="#56B7D2" transform="translate(0,0)"/>
<path d="" fill="#54B8D1" transform="translate(0,0)"/>
<path d="" fill="#8088ED" transform="translate(0,0)"/>
<path d="" fill="#7F8BED" transform="translate(0,0)"/>
<path d="" fill="#808BEE" transform="translate(0,0)"/>
<path d="" fill="#53BBCF" transform="translate(0,0)"/>
<path d="" fill="#797BDC" transform="translate(0,0)"/>
<path d="" fill="#6A92D7" transform="translate(0,0)"/>
<path d="" fill="#6C8FD9" transform="translate(0,0)"/>
<path d="" fill="#808BEC" transform="translate(0,0)"/>
<path d="" fill="#8186EE" transform="translate(0,0)"/>
<path d="" fill="#8186EE" transform="translate(0,0)"/>
<path d="" fill="#8287EF" transform="translate(0,0)"/>
<path d="" fill="#8085EE" transform="translate(0,0)"/>
<path d="" fill="#8189EF" transform="translate(0,0)"/>
<path d="" fill="#7287D9" transform="translate(0,0)"/>
<path d="" fill="#7585DD" transform="translate(0,0)"/>
<path d="" fill="#7585DF" transform="translate(0,0)"/>
<path d="" fill="#53AEC9" transform="translate(0,0)"/>
<path d="" fill="#53AFC9" transform="translate(0,0)"/>
<path d="" fill="#50B7C8" transform="translate(0,0)"/>
<path d="" fill="#52AEC7" transform="translate(0,0)"/>
<path d="" fill="#50B0C9" transform="translate(0,0)"/>
<path d="" fill="#52B1C9" transform="translate(0,0)"/>
<path d="" fill="#51B6CA" transform="translate(0,0)"/>
<path d="" fill="#767ADB" transform="translate(0,0)"/>
<path d="" fill="#7176D3" transform="translate(0,0)"/>
<path d="" fill="#6E73CB" transform="translate(0,0)"/>
<path d="" fill="#7072CB" transform="translate(0,0)"/>
</svg>
